<svg width="0" height="0" style="display: none" >

  <symbol xmlns="http://www.w3.org/2000/svg" aria-hidden="true" viewBox="0 0 1024 1024" id="mill">
    <g fill="#291711">
      <path d="m503 133 6 1v3l1 14v65c0 3-1 8 2 10 4 2 8 4 9 9 3 7 0 16-6 20-1 2-4 3-4 5l1 13v5c2 5 2 9 2 14v8c0 2-1 3 1 5l6 9 13 16 1 1 13 18 13 13 19-17c4-5 10-9 13-15l-19-17-8-9c-1-2-5 0-6-3-1-1-3-3-1-4 3-5 7-8 11-12l11-12 19-19c10-8 18-18 27-26l11-11 13-13c6-4 9-11 15-15 7-5 11-13 18-18l16-16c2-1 1-4 2-6l7-4 6-7c3-1 6 2 7 5l-8 10c3 5 8 9 12 13l17 17 17-16c3-3 6 2 7 4-4 7-11 12-16 18-2 1-2 1 0 2l15 17 15 15 12-11 5 6-7 8-3 4-1 1-1 1-31 29-32 33c-8 7-14 15-23 21-7 7-13 15-21 21l-10 12-12 11-20 18c-2-2-5-3-5-6-1-3-1-5-3-7l-16-14-11-12a116 116 0 0 1-16 15l-5 5-11 11c-1 1-3 2-1 4l26 34c4 4 10 7 11 13-1 3-3 5-3 8l4 4 3 2c1 2 1 2 2 0l1-1 2-2 13-12 1-1 1-1 5-7 3-3 10 11 15 15c7 6 11 13 19 19 6 4 10 11 16 16l33 33c8 9 18 17 25 27l31 31 10 10c2 3 5 1 8 2 1 2 0 5-1 7l8 7c0 3-3 7-7 6l-7-6-11 11-15 16-4 5v1c8 7 13 15 22 21 1 2 3 3 3 5 0 3-3 5-4 7-5-2-8-7-12-10l-18-18-14 16c-6 5-12 9-16 15l7 8c0 3-3 5-5 6-2 2-4-1-6-2-3-4-8-6-10-10-5-9-14-13-20-21l-18-18-11-11c-6-7-12-14-20-19l-8-9-1 4v24l-1 31v63a151 151 0 0 0 0 22v18a2676 2676 0 0 0 0 81l3 1 5 1 4 1c1 3-1 6-2 9a1565 1565 0 0 0-6 0l-6 1v36a9233 9233 0 0 0 118 0c1 0 3 1 2 3v2c0 3-3 5-6 5H313l-36-1-11 1c-4 1-8 0-8-4v-3c0-2 2-4 4-4l9 1h87c6 0 12 1 18-1v-14l1-13 1-9h-3c-2-1-4 0-6 1-2 0-5 1-6-1-2-3-1-6-1-10h5l6-1h2V595l-1-15v-3c-5 2-7 7-11 11l-11 12-41 40-16 17-5 4-8 8c-3-1-6-3-5-6 1-4 4-7 6-10l-28-26c-1-2-3-4-5-2l-18 19-7 5c-2 0-4-2-5-3-1-3 1-5 3-7a312 312 0 0 1 22-23l-18-17-13-13-7 6c-2-2-5-4-5-7l5-6c0-3 0-6 2-9l6 2c8-11 18-19 27-29l46-45c8-8 15-17 24-24l16-16 17-18 7-8c8-6 14-13 21-20l6-4 6 8c5 6 10 11 16 15l5-4v-8l2-2 1-1 2-2 2-3 1-1a183 183 0 0 0 20-25l8-9c1-1 2-1 2-3s-2-3-3-5l-19-18-13-13c-6 5-11 12-17 16l-2 2-12 12 5 5c-2 2-4 5-8 4-5-3-8-8-13-12l-20-19-4-5c-7-5-12-11-18-17l-22-20v-1l-27-26-8-9-36-36c-4-4-9-7-11-12-1-3 1-6 3-8 5 2 8 7 12 11l15-15 16-16-14-16-2-4 4-6c5 2 7 7 11 10l7 8c0 2 2 1 2 0 3-5 8-8 12-12 6-6 12-11 17-18l-8-9 4-6c3-1 4 2 6 3 4 5 9 7 12 12 6 9 15 14 21 23l18 16 19 20 10 10c4 4 9 7 12 12l2 2 8 9 12 12h1l40 41c-3 5-10 5-15 9l-23 23 1 1 2 2c5 5 10 12 16 16 5 4 9 10 15 13l10-12 4-6 2-2 7-9 22-27c2-1 2-3 2-5v-10l1-4v-8l1-6v-4l1-11-2-1c-6-2-10-8-10-14v-3c0-2 0-5 2-7l2-2 2-2h2l4-3v-54l1-34v-5m-228 57 16 16 19-18c4-4 8-7 11-12l-16-16-30 30m418-13 15 16 13 12 15-15c-8-10-19-19-27-30l-16 17m-387 26c-3 3-7 5-8 9l12 13c11-8 20-19 30-28l-13-15-21 21m367-8c6 9 14 15 21 22l7 7c5-3 9-9 14-13a519 519 0 0 0-30-28l-12 12m-435 32 13 16c12-9 22-20 32-30l-14-16c-11 9-20 21-31 30m490-15 18 17 14 14 14-13-12-14-19-19-15 15m-75 3c8 12 19 20 29 29l13-13-10-11c-6-7-13-12-18-19l-14 14m-336 17 13 13 30-29-14-14c-9 10-20 19-29 30m-28-14-12 13-19 18 13 14 24-23 7-7-2-5-11-10m419 14c10 11 21 21 32 30l13-12-13-14-19-17-13 13m-371 18 13 15 30-28-14-16-29 29m309-28-13 14 28 28c6-3 10-9 14-13-5-7-13-13-19-20-3-3-6-7-10-9m-350 29c-6 5-12 12-19 16l14 16 13-13 19-18-13-14-14 13m405-13-12 14 21 22 10 8 14-13-33-31m-316 3c-9 9-18 20-28 28 4 6 10 10 13 16 10-7 18-16 27-24 1-2 3-3 3-5l-4-4-11-11m241 1c-4 5-10 9-14 15l17 18 11 10c6-4 11-10 16-15l-15-14-15-14m-297 15c-9 12-22 20-31 32l14 14 10-11 19-17c1-2 3-3 1-5l-13-13m340 15 9 9c7 7 14 15 22 21l13-13-8-9-22-23-14 15m-292 18 13 15 19-17c3-4 8-7 10-12l-13-14-29 28m225-25-10 11 8 10 20 19c6-4 10-9 14-14l-7-6c-6-8-13-15-21-21-1-2-3 0-4 1m-257 17-20 19-7 6 14 16c11-10 23-19 31-31-1-3-3-4-5-6l-8-9-5 5m317-3c-4 2-7 6-10 9-2 1-4 3-4 5 3 5 8 8 12 12 6 6 12 13 19 17l14-14-29-29h-2m-265 31 13 14c7-6 14-10 20-17l9-11-14-14-28 28m188-28c-4 6-9 10-14 14l12 13c6 5 13 10 18 16l13-14-29-29m-232 33-13 13 13 14 23-21 7-8c1-2-1-3-2-4l-11-11-17 17m275-3 32 31 12-14c-9-11-20-21-31-30l-13 13m-268 35 12 15c3-6 9-9 13-13 6-6 12-11 17-18 0-2-2-3-3-4l-9-10-30 30m258-26-9 10 16 18 15 14 13-15-21-21-10-8c-2-1-3 1-4 2m-131 13c-3 4-7 7-9 12l-16 21h2c2 1 5 2 8 0 4-11 12-21 16-32l1-2c-1-1-2 0-2 1m4 9c-3 9-8 16-11 24l6 1 5-16h1v-4l5-14-6 9m10-9-3 12v2c-2 1-2 2-1 3v2c-2 1-2 2-1 3v2c-2 1-2 2-1 3v3c-2 0-2 4 0 4s5 1 7-1v-15l1-14-2-4m8 5a204 204 0 0 0 1 28c1 2 5 2 6 0v-7h-1v-3c1-1 1-2-1-3v-2c1-1 1-2-1-3v-2c0-3-1-6-4-8m11 4c1 2 0 6 2 8l5 14 3 2c-1-5-3-11-7-15 0-4-1-7-3-9m16 10 2 5c1 3 2 7 5 8 0-3-1-5-4-7 0-3-1-5-3-6m-83 25-7 7-11 16-14 20h9l5-6c3-8 7-14 12-21 4-5 8-10 10-16-1 0-3-2-4 0m12 0-6 8-1 1c-6 11-13 21-18 33 2 1 5 3 8 2l10-20c4-7 6-15 9-22 3-1-1-5-2-2m35 0-2 5c-2 1-2 2-1 3v5c-2 1-2 2-1 3v4c-2 1-2 5 0 6l-1 7a379 379 0 0 1-1 10l9 1c1-4 2-9 0-13 2-2 2-5 0-7 2-7 1-15 1-22 1-2-3-5-4-2m-24 0-7 16-1 1-10 26h1c2 2 5 1 8 0 5-7 6-15 8-23h1v-4c2-1 2-2 1-3l1-5a306 306 0 0 1 2-6l-4-2m12 0-4 10h-1v2l-7 30c2 1 5 3 8 2 1-1 3-3 3-5 2 0 2-3 1-4v-4c2 0 2-3 0-4l1-4c2 0 2-3 0-4l1-5a3286 3286 0 0 1 2-11l-1-3h-3m23 1a174 174 0 0 0 0 10c-1 6-2 12 0 18v5c-1 2-1 6 1 7v2h1c1 2 5 2 6 0h1v-8c1-1 1-2-1-3l-1-5c2-1 2-5 0-5v-6l-2-15h-5m11 0 1 6 1 3c-2 1-2 5 0 6l1 3c-2 1-2 5 0 5l1 10v2h1l2 8h6a123 123 0 0 0-2-11c1-1 1-2-1-3l-2-11-4-15c0-2-2-3-4-3m12 2 3 10 1 5v2h1v4h1l6 19h5l-11-30c-1-4-3-7-6-10m16 9 5 11 9 21 4-2-11-21c-2-4-4-7-7-9m16 3c2 6 5 11 9 16 3 4 4 11 9 12 0-5-5-8-7-13l-11-15m-209 47c6 8 13 14 20 20l19-19-18-20-21 19m262 3c2 5 6 7 9 11 2 2 3 6 6 7a111 111 0 0 0 22-22c-5-6-11-12-18-17-6 7-14 13-19 21m-169-6-11 24c-5 15-15 28-21 42-4 9-10 16-11 26 0 2 2 4 4 4-1 2 3 2 3 0l2-3c6-10 9-22 14-33l3-4c2 4 1 9 1 13-1 8-5 15-6 22-2 0-2 4 0 3 1 3 4 4 6 2 3-2 5-6 6-10h1v-2l1-5h1v-2l1-6c2-1 2-2 1-3v-3h1v-5c2-1 2-2 1-3v-2c2-1 2-2 1-3l1-6h1v-2l1-5h1v-5c2-1 2-4 1-5v-1c2 0 2-4 1-5v-2c2 0 2-3 1-4v-2c2-1 2-2 1-3v-3c2-1 2-2 1-3v-2h1v-2c0-2 2-6 0-8-4 0-7 3-8 6m15 3h-1v4h-1v2l-2 13c-2 0-2 3-1 4v2c-2 0-2 3-1 4v3c-2 1-2 2-1 3v3c-2 1-2 2 0 3-3 9-4 19-6 28l-4 16c-2 1-2 2-1 3-2 4 4 8 7 6 6-1 7-8 8-12 2 0 2-3 1-4v-2c2-1 2-2 1-3v-4c2 0 2-4 0-5l1-4c2 0 2-3 0-4l2-8c1-1 2-2 1-3v-4a382 382 0 0 0 3-23c2 0 2-4 1-5v-5c2 0 2-3 0-4l1-4c2 0 2-3 1-4v-2c-1-1-2-3-4-3-4 1-5 6-5 9m19-8c-2 2-2 5-3 7l-2 15c-2 0-2 3-1 4v7c-2 0-2 3-1 4v5h-1v2l-1 10c-2 0-2 3 0 4l-4 24c-2 0-2 3 0 4l-2 8c-2 0-2 5 0 5l3 3c0 2 4 2 4 0 4-1 8-6 7-10 2 0 2-3 0-4l1-6c2 0 2-4 0-5l1-7 1-8v-6c2 0 2-3 1-4v-3c2 0 2-3 1-4v-6c2-1 2-5 0-6v-6l1-11v-17l-5 1m-76 6-1 1-3 4-1 1-8 11-1 1-2 3-1 1-1 2-1 1-4 6h-1v1l-4 6v1l-8 10-1 1-4 5-1 1-2 3-1 1c-3 6-8 11-12 17-2-2-4 2-3 4l-7 12h12c4-4 6-9 9-13l11-17 6-11c2 2 4-2 2-3 5-4 6-10 10-14l5 3-8 13c-1-1-3 2-2 3-3 7-10 13-13 21-3 6-7 11-8 17l3 3c0 2 3 2 3 0 4-1 5-5 7-8l16-29 11-20h1v-1l8-13 11-22 1-1 2-4c2 0 2-3 0-3h-4v1a25 25 0 0 0-3 4 98 98 0 0 1-7 10l-9 13-5 8-4-2v-2l1-1h1v-2l9-16 9-11v-1h1c-5-2-7 3-9 5m29-6v1c-4 3-5 9-8 12-2 4-5 7-6 11-2 1-2 2 0 3-6 14-15 27-23 40l-7 14-7 16c-2 0-2 3 0 3l3 2c0 2 3 2 3 0 3-1 5-6 7-9l9-19c6-14 14-27 21-40l1-1c5-9 8-19 12-30 2 1 2-3 0-3h-5m62 0-2 6c-2 1-2 2-1 3v6c-2 0-2 4 0 5l-1 6c-1 2-2 6 0 8v12c-2 1-2 5 0 7l-1 6c-2 1-2 5 0 6l-1 12c-2 1-2 2-1 3v6c-2 0-2 4-1 5-1 5 2 11 7 12 5-1 7-6 7-11 2-10 1-19 1-29v-10l2-7h2l2 4 1 4c-2 1-2 5 0 6v19l1 9c-2 1-2 4 0 4 0 3 1 6 4 8 3 1 6 3 10 3 3 0 5-4 5-7 0-5-1-9-3-14 2-1 2-2 0-3v-4c1-1 1-2-1-3v-4c1-1 1-4-1-4v-4c1-1 1-4-1-4l-1-4c2-1 2-4 0-4l-1-5c2-1 2-4 0-4l-1-5c2-1 2-4 0-4l-1-4c2-1 2-4 0-4v-2c1-1 1-4-1-4v-2a3935 3935 0 0 0-2-12v-1l-3-1c-2-1-2-1-3 1h-1v1c-2 3-1 7-1 10 0 6-1 12 1 17v2c-2 1-2 2-1 3v1h-5l-1-3c1-1 1-5-1-5v-10c0-5 1-10-1-15v-2h-5m30 0 1 8c-2 1-2 4 0 4l1 5c-2 1-2 4 0 4v4a379 379 0 0 1 4 28c1 13 4 25 6 37 0 4 2 8 5 10 2 2 5 4 7 2 2-1 6-3 5-6l-6-19-6-30-7-25-5-22h-5m16 2 2 12v2h1v3c-1 1-1 2 1 3l3 16c-1 1-1 2 1 3l5 24c3 10 5 21 9 31 1 2 2 6 4 6 0 2 3 2 3 0l4-2c2 0 2-4 0-3l-6-19v-2h-1v-3h-1v-3h-1l-5-20v-2h-1l-7-26v-2h-1l-7-19c0-2-4-1-3 1m17 1 5 22c3 7 4 14 8 20-1 2 3 2 3 0l2-1c-4-13-10-25-15-37 0-2-2-3-3-4m27 1 10 16 9 17c2 3 3 6 6 7 0-2 0-4-2-6l-11-19-12-15m-7 10 1 5 11 25c0 2 3 2 3 0h1c-3-9-9-17-13-26l-3-4m58 23 15 20c9-6 15-15 22-22 1-1 3-2 3-4l-7-7-11-10-22 23m-305-6 23 23 14-17c0-2-1-4-3-5l-18-18-16 17m-20 21c8 8 17 16 24 25l14-15-6-9c-6-6-13-10-18-17l-14 16m371-13-18 20c-2 2-6 4-4 8 4 7 10 12 15 19l14 13-4 7c2 0 4 1 5-1l11-12 17-17c-2-4-4-8-8-11l-12 5c-3 0-7 1-9 3h-2c5-4 11-9 17-11l-9-10-13-13m-111 12 5 21 5 20c2 4 4 8 8 10 2 0 4-2 5-3l-7-17c-2-9-7-17-11-25-1-2-1-5-4-6 1-1 0-2-1 0m53 3c0 1 1 4 2 3 3 9 9 17 13 26 4 5 6 11 11 16h4c-2-7-7-12-11-18-6-9-10-18-17-26 0-1-1-2-2-1m-15 0 1 3v1l3 9 15 34 6-2c-2-6-5-12-9-17l-13-24-3-4m-19 1v5h1v2l1 1 5 13 8 20 4 5c2 0 5-2 4-5-2-4-5-7-6-11-3-9-9-17-12-25l-5-5m-287 4-14 14c6 7 10 14 17 20l10 10c1 2 3 1 5 0 0-2-2-5-1-8 2-4 8-6 10-10 0-5-4-9-7-12-6-5-12-10-20-14m-34 35 18 17 12 13 12-11c2-1 0-3 0-4-5-7-11-12-17-17l-11-13-14 15m441 3c-6 6-12 10-17 17l12 11 31-31c-3-5-6-9-10-12-6 4-11 9-16 15m0 34 11 12c12-10 22-21 33-32l-11-11-33 31m-459-20c5 6 11 10 15 16l17 15 10-12c-9-11-20-20-30-29l-12 10m76-3-4 6c7 4 13 10 19 15 5 6 9 12 15 16l11-9 1-19c-7 1-15 3-23 2-4-2-4-7-4-10-5 1-10 0-15-1m338 5c-3 3-8 4-12 4h-20l1 17c5 2 9 6 12 11l17-17 18-14v-6c-6 1-12 1-16 5m20 5c-4 6-11 8-15 14l-18 19c5 4 10 8 13 13l16-16 13-13c1-1 4-2 3-4l-12-13m55 20-12 11 10 11c9-5 15-13 21-20l12-11-11-11-20 20m-505-10c4 6 8 12 14 16 6 5 10 11 16 15l10-10c-9-12-20-21-31-30l-9 9m71 2 14 14 19 19 11-12-11-12c-6-8-15-13-22-20l-11 11m144-4v5l-1 22v123l1 11v24l-1 5-4 1c-1-1-3-2-3-4V573l-1-9v-5l-15-1 1 1v7l-1 30 1 19v9l-1 14v76l1 14c0 5 1 10-1 14h-2v1h-6v-2l1-18V563l-1-4h-1l-13-1v254c-1 6 3 11 8 12 3-1 5-2 6-5l1-6v-60l3-1c1 2 4 2 4 0 3 0 6-1 9 1 0 2 0 4-2 4l-5 1v1h-1v59c1 3 3 5 6 5-1 2 4 2 3 0 7-1 7-8 6-13v-53h1v-2l1-2h5l1 3a6008 6008 0 0 1 1 64l2 2v1h5c1 1 2 1 3-1l3-2 1-17-1-15v-45l-1-20v-7c0-3 2-3 4-5 1 2 4 2 5 1h14v-20l-1-15v-14l-7 1c-1-2-5-2-5 0v6l-5 1-4-7-1-2c2-1 2-4 0-5l2-5 1-7-1-40-1-9c2-2 2-5 1-7l1-1c2 1 4 0 5-1h1c1 2 4 2 6 0l9 1c-2-10-1-19-1-28a3935 3935 0 0 1-13-2l-1 7v14l-2 4-6-1v-24a105 105 0 0 0-6 0c-3-1-6-2-8 0m-66 1h-3l-1 2-1 30v89l1 8v60l-1 16v42l1 13c3 5 11 6 14 1 2-2 2-5 2-8V561l-1-4a544 544 0 0 0-11 2m111 0v6l-1 18v5h14c2 1 3-3 1-3v-25h-3c-1-2-5-2-6 0l-5-1m23 2 1 1-1 3-1 9v4c-2 0-2 4 0 5l-1 5h21l3 1a353 353 0 0 0 0 14l-1 31c1 7-1 14 1 20v7l-1 4-1 16v26c0 4 4 6 3 10 0 5-3 9-2 14v79l1 9c0 3 4 3 6 3 3 1 8 0 7-4l1-10V572c-5-3-9-6-15-7v17l-3 3-5-2v-19c-4-2-8-4-12-4l-1 1m-301 17c3 5 8 10 13 14 6 6 11 12 18 17l10-11-3-4-17-15-12-11-9 10m549 0-12 13-9 7 11 11 14-12 17-19-10-10-11 10m-79 7-16 17 12 12 24-26 8-7-12-12-16 16m-389-15-9 9c5 8 12 13 18 20 5 4 9 10 15 13l10-11c-10-11-22-22-34-31m288 0v2c-2 4-1 8-1 12v2l-1 14v146h-7c-2-8-1-17-1-26v-91l-1-9 1 1v-40l-14-7v186l-1 16v36l1 7c1 3 4 5 7 4 3 0 7-2 7-5v-63l-1-1 2-3c3 1 5 1 7 3v64c1 2 3 5 5 5 0 2 4 2 4 0 2 0 5-1 5-3 2 0 2-3 0-4l1-6V601h-1l-6-1v-3l2-3 4 3c0-6 0-12-2-18l-4-3c-1-3-3-5-6-6m23 1v26l-1 11c-2 13 0 26-1 39v168c0 4 2 8 5 8 0 2 4 2 4 0l6-3v-32l1-15h-1v-3c2 0 2-3 0-3v-2a1204 1204 0 0 1-1-21c2-6 1-12 1-18l1-19-3 3h-6c-1-4-2-8 2-10l5 2 2 1-1-5-1-7c1-8 2-16 1-24v-3c2-2 1-5 1-8h-1v-3h-8l-1-1v-4h1v-2l3-2h3l2 5v-18l-1-11c-4 2-2 7-2 11-1 4 1 7 1 11-3 0-7-1-6-5l1-12-1-6 1-7c0-3-2-6-1-9v-25c0-3-1-6-5-7m-328 16-9 11c7 11 18 18 26 28l6 5 10-13c-8-6-14-14-21-21l-12-10m439 0-31 32 10 10c1 2 2 0 3 0 5-7 11-13 17-18l13-13c-4-3-7-8-12-11m-239 12h-5v54h53v-3l1-21v-30l-8-1h-35l-6 1m-226 17c9 11 20 21 31 32l11-13c-9-6-15-14-23-21l-9-9-10 11m480-8-29 27 12 13c11-10 22-20 31-32l-10-10c-1-2-3 1-4 2m-117 4 4 4-1-8-3 4m-124 51v4l-1 16 1 15 1 14h13v-2l1-15-1-15v-17h-1c-4-1-9-2-13 0m23 0v2c-2 6-1 13-1 19v23c-1 1-1 2 1 3v2h2c2 2 6 1 8 0h4c2 0 2-4 0-4v-39l1-6h-15m-16 62h-5v5l-1 15 1 25c3 3 7 2 10 2a348 348 0 0 1 0-47h1c-1-2-5-2-6 0m-24 1h-1v30c-1 5-2 10 0 14v1h12l-1-12v-34h-6c-1-1-4-1-4 1m39-1v2h-1v24c-1 5-2 10 0 15v5h1c3 2 7 1 11 1v-47h-11m-38 56h-1l1 4 1 1h14c6 0 13 1 19-1 2 2 6 2 7 0h3c3 0 6-1 7-4h-1l-6-1h-32l-12 1m37 12v28h1c2 2 6 1 8 0h2v-1l1-9-1-13v-5h-11m-39 2v23c0 3 4 5 7 4 1 1 2 1 3-1l1-7v-20h-5c-1-1-5-1-6 1m20-1v1c-2 1-2 5 0 7l-1 11c-1 1-1 5 1 6v2h1c1 1 2 2 3 1h1c1 1 4 1 4-1l1-4v-23h-10m-43 39 2 2-1 1 1 1-1 1c4 2 8 1 12 1a458 458 0 0 0 42 0h35c1 1 4 1 4-1h1v-1c1-1 2-1 1-3l-1-2h-80c-5 0-10-1-15 1m-36 4v11l-18 4v15c1 2 4 1 6 1l1-12v-4l14-1v-1c2-4 1-8 1-13h-4m33 12v5c4 2 9 1 14 1h72l14-1v-1l1-5h-92l-9 1m140 3v2c-2 4-1 8-1 12h1v1h6c0-5 1-10-1-15h-5m-145 12v6h17l13 1h34a1272 1272 0 0 1 36-1h12l-1-2 2-2v-3h-99l-14 1Z"/>
      <path d="M263 396h6c4 0 3 6 3 9v1l-4 1h-4l-3-1c0-3-1-8 2-10Zm20 0c3 0 8-1 9 3 2 3 1 8-3 8h-4c-5 0-5-8-2-11Zm24 0h11l1 3v4c0 4-5 3-8 3h-2c-3 1-3-3-3-5v-1l1-4Zm385 4c-1-3 3-4 6-4 2 0 7 0 6 3v5c1 3-4 3-6 3s-6 0-6-2v-5Zm23 6c-1-4 0-9 4-10 3 0 7 0 7 3v5l-1 3h-6l-4-1Zm23-10h7l1 3v6l-3 2h-4c-5-1-6-10-1-11Zm-414 7c0-3 0-7 3-6 4 0 4 4 3 7-2 0-5 1-6-1Zm163 201h17v19h-17v-19Zm39 0h2v4l-1 12-1 3h-15v-18l15-1Zm-33 25 11-1v19h-17v-18h6Zm18 0h16v18h-16v-18Zm107 32 6-3v2l-2 6-4-1v-4Zm2 16c-3-3-3-6 0-8h4v7h-1l-3 1Zm-152 4h8v25h-8v-25Zm149 42c2-3 5-4 9-4l-1 7c-1 4-5 2-7 0l-1-3Zm-45 31 2-1h5v1l1 2c-2 2-5 2-8 2v-4Zm45 20h7c3 2 2 5 1 8l-7 1c-2-2-1-6-1-9Zm-383 95h10c2 2 2 7 0 9s-5 3-8 3c-2-1-4-3-4-5s0-6 2-7Zm531 8c-3-3 0-9 4-8h4l4 1v5c0 6-10 7-12 2Z"/>
    </g>
    <path fill="#645950" d="M509 137h1v14l-1-14Zm-19 106c-2 0-2-3 0-3v3Zm10 36c-1-1-1-5 1-6l-1 6Zm12-6c2 0 2 4 0 5v-5Zm-13 18c-1-1-1-4 1-4l-1 4Zm15 1c2 1 2 5 0 7v-7Zm-15 9c-2 0-2-5 0-5v5Zm16 4c-2-2-1-3-1-5 2 1 2 4 1 5Zm21 48c2 1 3 3 3 6l-1-1-2-5Zm-41 8c-1-1-1-2 1-3l-1 3Zm16 46c-2-6-1-12 0-18v18Zm-245-11c0-2 3-2 3 0h-3Zm53 3c2-1 2 4 0 4v-4Zm385 0c2 0 2 5 0 5v-5Zm22 0c2 0 2 5 0 5v-5Zm20 0c2 1 2 5 0 6v-6Zm-54 6c-2 0-2-5 0-5v5Zm-189 4v-7c2 2 2 5 0 7Zm-239-2h4c0 2-4 2-4 0Zm21 0h4c0 2-4 2-4 0Zm454 0h4c0 2-5 2-4 0Zm-207 1c2 1 2 2 1 3l-1-3Zm-13 2c2 1 2 2 1 3l-1-3Zm-8 2 1 7c-2-1-2-5-1-7Zm3 21c1-2 1-2 3-1-1 1-2 2-3 1Zm-2 11c0-3-1-7 1-10v27c-2-5-1-11-1-17Zm8-10c2 1 2 2 1 3l-1-3Zm-47 6 1-4c1 1 1 4-1 4Zm23 1c-1-1-1-2 1-3l-1 3Zm25-1c2 1 2 5 1 6l-1-6Zm1 8c2 0 2 3 1 4l-1-4Zm9 1v4c-2 0-2-3 0-4Zm-60 9 1-5c1 1 1 5-1 5Zm7 0c-1-1-1-4 1-4l-1 4Zm-55 1c-2-1-2-2 0-3v3Zm108-2 1 4c-2 0-2-3-1-4Zm-26 2c2 0 2 4 1 5l-1-5Zm-35 7 1-4c1 1 1 4-1 4Zm62-2 1 4c-2 0-2-3-1-4Zm-25 3h5v15l-2-4h-2l-2 7 1-18Zm26 5 1 4c-2 0-2-3-1-4Zm-65 9 1-4c1 1 1 4-1 4Zm19 0 1-4c1 1 1 4-1 4Zm88-4h3c0 2-4 2-3 0Zm-40 4v5c-2 0-2-4 0-5Zm-49 7 1-4c1 1 1 4-1 4Zm-19 0 1-3c1 1 0 2-1 3Zm8 2c-2-1-2-4 0-4v4Zm38-4v6c-2-1-2-5 0-6Zm-66 6 1-3c1 1 1 2-1 3Zm47 5c-2-1-2-5 0-6v6Zm34-1c2 0 2 3 1 4l-1-4Zm165 9c2-2 6-3 9-3-7 4-12 12-20 14 2-4 5-8 9-11h2Zm-164-1c2 1 2 2 1 3l-1-3Zm-85 4 1-3c1 1 1 2-1 3Zm40 6v-5c2 1 2 5 0 5Zm-13 4c-2-1-2-4 0-4v4Zm20 5c-1-1-1-5 1-5l-1 5Zm-8 1v-4c2 1 2 4 0 4Zm-72 9h3c0 2-4 2-3 0Zm43 25c2-2 5-1 8 0h-8Zm-66 1c1-2 5-2 6-1l-6 1Zm99 0c1-1 2-1 3 1l-3-1Zm-104 32 1-30v127l-1-8v-89Zm47 5 1-30v49l-1-19Zm159-12c0-4-1-8 1-12l-1 12Zm7-8 4 3c2 6 2 12 2 18l-4-3-4-8 2-10Zm-75 7c-2-1-2-5 0-5v5Zm-53 13c0-2-1-5 1-7 1 2 1 5-1 7Zm17 3 6-1h35l8 1h-49Zm-5 3v10-10Zm7 1v20h-1l1-20Zm2 1h14-14Zm137 52h1c0 3 1 6-1 8v-8Zm-114 24 1 15-1 15v-30Zm23 28c2 0 2 4 0 4v-4Zm-58 4h11-11Zm46 0h8c-2 1-6 2-8 0Zm113 2v8-8Zm-131 11c1-2 5-2 6 0h-6Zm-24 1c0-2 3-2 4-1l-4 1Zm130 8v21-21Zm-92 32c-2-5-1-10 0-15v15Zm-9-10c1 5 2 11 0 16v-16Zm109 3h7v6c-2 0-5-1-7-3v-3Zm-139 36c1-2 5-2 6-1l-6 1Zm146 9v-9 9Zm-146 14v-20 20Zm50-20 1 13-1 9v-22Zm-11 20v-17 17Zm83 2v-4c2 1 2 4 0 4Zm-115 2 3-1c-1 2-2 2-3 1Zm14-1 3 1c-1 1-2 0-3-1Zm19 0h8c-2 1-6 2-8 0Zm119 1c1-1 4-1 5 1l-5-1Zm-270 12c2-1 4-2 6-1-1 2-4 2-6 1Zm271-1h4c0 2-3 2-4 0Zm-93 6 4-1c0 2-3 2-4 1Zm-144 13 18-4 3 2v1l-14 1a419 419 0 0 0-1-1l-6 1Zm190 14c0-4-1-8 1-12v12h-1Zm-217-4c-2-1-2-6 0-7v7Zm393 7c0-2 4-2 4 0h-4Zm-31 1h15-15Zm-272 0h47v1h-34l-13-1Zm-208 6c-2 0-2-3 0-3v3Zm8 4 11-1 36 1h-47Z" opacity=".9"/>
    <path fill="#dbd8cd" d="m502 145 1-7-1 34v-27Zm-227 45 30-30 16 16c-3 5-7 8-11 12l-19 18-16-16Zm418-13 16-17c8 11 19 20 27 30l-15 15-13-12-15-16Zm-425 6 1-1 1 1c0 1-2 2-2 0Zm38 20 21-21 13 15c-10 9-19 20-30 28l-12-13c1-4 5-6 8-9Zm367-8 12-12 9 8 21 20c-5 4-9 10-14 13l-7-7c-7-7-15-13-21-22Zm-435 32c11-9 20-21 31-30l14 16c-10 10-20 21-32 30l-13-16Zm490-15 15-15 19 19 12 14-14 13-14-14-18-17Zm-75 3 14-14c5 7 12 12 18 19l10 11-13 13c-10-9-21-17-29-29Zm-336 17c9-11 20-20 29-30l14 14-30 29-13-13Zm-28-14 11 10 2 5-7 7-24 23-13-14 19-18 12-13Zm419 14 13-13 19 17 13 14-13 12c-11-9-22-19-32-30Zm-371 18 29-29 14 16-30 28-13-15Zm309-28c4 2 7 6 10 9 6 7 14 13 19 20-4 4-8 10-14 13l-28-28 13-14Zm142 8 3-4c2 2-1 4-3 4Zm-296 3 2-2-2 2Zm294-1 1-1-1 1Zm-490 19 14-13 13 14-19 18-13 13-14-16c7-4 13-11 19-16Zm405-13 33 31-14 13-10-8-21-22 12-14Zm-316 3 11 11 4 4c0 2-2 3-3 5-9 8-17 17-27 24-3-6-9-10-13-16 10-8 19-19 28-28Zm241 1 15 14 15 14c-5 5-10 11-16 15l-11-10-17-18c4-6 10-10 14-15Zm-211 15Zm-86 0 13 13c2 2 0 3-1 5a305 305 0 0 1-29 28l-14-14c9-12 22-20 31-32Zm171 0 2 1-1 11-1-12Zm169 15 14-15 22 23 8 9-13 13c-8-6-15-14-22-21l-9-9Zm-292 18 29-28 13 14c-2 5-7 8-10 12l-19 17-13-15Zm225-25c1-1 3-3 4-1 8 6 15 13 21 21l7 6c-4 5-8 10-14 14l-20-19-8-10 10-11Zm-257 17 5-5 8 9c2 2 4 3 5 6-8 12-20 21-31 31l-14-16 7-6 20-19Zm317-3h2l29 29-14 14c-7-4-13-11-19-17-4-4-9-7-12-12 0-2 2-4 4-5 3-3 6-7 10-9Zm-265 31 28-28 14 14-9 11c-6 7-13 11-20 17l-13-14Zm188-28 29 29-13 14c-5-6-12-11-18-16l-12-13c5-4 10-8 14-14Zm-232 33 17-17 11 11c1 1 3 2 2 4l-7 8-23 21-13-14 13-13Zm275-3 13-13c11 9 22 19 31 30l-12 14-32-31Zm-107 2Zm-161 33 30-30 9 10c1 1 3 2 3 4-5 7-11 12-17 18-4 4-10 7-13 13l-12-15Zm258-26c1-1 2-3 4-2l10 8 21 21-13 15-15-14-16-18 9-10Zm-199 10c1-2 3 1 2 2l-2-2Zm115-1 1 1-1-1Zm-43 13 6-9-5 14 1-6-2 1Zm10-9 2 4-1 14v-11l-4 5 3-12Zm-35 10c0-1 0-2 2-2l-2 2Zm-76 11 2-2c0 2-1 2-2 2Zm196-2Zm-5 5Zm-12 15c-2-2 0-3 1-4 1 1 0 3-1 4Zm-127 3c-2-1 0-4 2-3 0 2-1 2-2 3Zm69 3h5l2 15-3-14h-3l-1 3v-4Zm23 2c3 3 5 6 6 10l-3-4v4l-3-10Zm-101 5Zm117 4c3 2 5 5 7 9l-2 2-5-11Zm-244 11v-1 1Zm-34 4v1-1Zm141 6 1-1-1 1Zm217 6c1-3 2-6 5-7l-5 7Zm-224 2c0-1 0-2 2-2l-2 2Zm222 0 1-1-1 1Zm-22 1 1-1v13l-4-4c0-3 2-5 3-8Zm-249 20 21-19 18 20-19 19c-7-6-14-12-20-20Zm262 3c5-8 13-14 19-21 7 5 13 11 18 17l-11 12-11 10c-3-1-4-5-6-7-3-4-7-6-9-11Zm-6-10c-1-2 0-2 2-2l-2 2Zm-189-1h2l-2 1v-1Zm121 2c-1-2 3-3 3-1l-3 1Zm-129 0v-1 1Zm-9 5 1-1-1 1Zm-4 5Zm179 2 3 4-2 1-1-5Zm58 23 22-23 11 10 7 7c0 2-2 3-3 4-7 7-13 16-22 22l-15-20Zm-305-6 16-17 18 18c2 1 3 3 3 5l-14 17-23-23Zm59-7 1-1-1 1Zm-3 4 1-1-1 1Zm6 3 1-2v2h-1Zm-8 0 1-1-1 1Zm6 2 1-1v2l-1-1Zm34 1 1-1-1 1Zm-114 18 14-16c5 7 12 11 18 17l6 9-14 15c-7-9-16-17-24-25Zm69-15h1-1Zm0 1Zm302 1 13 13-7 8-7 10-4 8c-1 2 0 4 1 6 8-2 13-10 20-14l12-5c4 3 6 7 8 11l-17 17-11 12c-1 2-3 1-5 1l4-7-14-13c-5-7-11-12-15-19-2-4 2-6 4-8l18-20Zm-280 4Zm-26 2v-1 1Zm-9 11 1-1-1 1Zm8 2 2-3c2 1 0 5-2 3Zm-72 1c8 4 14 9 20 14 3 3 7 7 7 12-2 4-8 6-10 10-1 3 1 6 1 8-2 1-4 2-5 0l-10-10c-7-6-11-13-17-20l14-14Zm56 7Zm-90 28 14-15 11 13c6 5 12 10 17 17 0 1 2 3 0 4l-12 11-12-13-18-17Zm75-7c-1-2 1-6 3-4l-3 4Zm366 10c5-6 10-11 16-15 4 3 7 7 10 12l-31 31-12-11c5-7 11-11 17-17Zm-373 2h12-12Zm373 32 33-31 11 11c-11 11-21 22-33 32l-11-12Zm-459-20 12-10c10 9 21 18 30 29l-10 12-17-15c-4-6-10-10-15-16Zm76-3c5 1 10 2 15 1 0 3 0 8 4 10 8 1 16-1 23-2l-1 19-11 9c-6-4-10-10-15-16-6-5-12-11-19-15l4-6Zm338 5c4-4 10-4 16-5v6l-18 14-17 17c-3-5-7-9-12-11l-1-17h20c4 0 9-1 12-4Zm20 5 12 13c1 2-2 3-3 4l-13 13-16 16c-3-5-8-9-13-13l18-19c4-6 11-8 15-14Zm55 20 20-20 11 11-12 11c-6 7-12 15-21 20l-10-11 12-11Zm-505-10 9-9c11 9 22 18 31 30l-10 10c-6-4-10-10-16-15-6-4-10-10-14-16Zm71 2 11-11c7 7 16 12 22 20l11 12-11 12-19-19-14-14Zm-89 16 9-10 12 11 17 15 3 4-10 11c-7-5-12-11-18-17-5-4-10-9-13-14Zm549 0 11-10 10 10-17 19-14 12-11-11 9-7 12-13Zm-79 7 16-16 12 12-8 7-24 26-12-12 16-17Zm-389-15c12 9 24 20 34 31l-10 11c-6-3-10-9-15-13-6-7-13-12-18-20l9-9Zm311 1c4 1 5 4 5 7v25c-1 3 1 6 1 9l-1 7c-2-3-4-6-4-9l-1-13v-26Zm-328 16 12 10c7 7 13 15 21 21l-10 13-6-5c-8-10-19-17-26-28l9-11Zm439 0c5 3 8 8 12 11l-13 13c-6 5-12 11-17 18-1 0-2 2-3 0l-10-10 31-32Zm-465 29 10-11 9 9c8 7 14 15 23 21l-11 13c-11-11-22-21-31-32Zm480-8c1-1 3-4 4-2l10 10c-9 12-20 22-31 32l-12-13 29-27Zm-117 4 3-4 1 8-4-4Zm146 5v1-1Zm-145 14c0-4-2-9 2-11l1 11v18l-2-5h-3l3-2c0-4-2-7-1-11Zm-6 17 1-2v2h-1Zm-1 9 8-1v2l-6 3-2-4Zm10 41 1 5-2-1 1-4Zm-2 12 3-3-1 19h-1l1-7c0-3 0-6-2-9Zm2 61v1-1Zm0 2h1l-1 15-1-6c1-3 2-6-1-8l2-1Zm-93 8c-1 3-4 4-7 4l7-4Zm-17 4h7c-1 2-5 2-7 0Zm-149 38c2-2 4-2 6-1l-6 1Zm9 10h2l-1 9-1-9Zm258 7c2 2 1 5 1 8l-1 15v-23Zm-184 40h36l-25 2c-4 0-8 0-11-2Zm46 0h57c-7 2-15 2-22 1l-35-1Z"/>
    <path fill="#9d938a" d="M751 191c-2-1-2-1 0-2v2Zm-241 15v10-10Zm-13 22h1v1h-2l1-1Zm-104 6c2 0 2 1 2 2l-2-2Zm-95 68v1-1Zm189 32c0-1 1-2 2-1l-1 2-1-1Zm22 5c3 2 4 5 4 8l-3-5v23l-1-26Zm11 4c2 2 3 5 3 9l-1-1c-2-2-1-6-2-8Zm-23 8c-1-1-1-2 1-3l-1 3Zm16-2c2 1 2 2 1 3l-1-3Zm-22 3 1-2v2h-1Zm5 4c-1-1-1-2 1-3l-1 3Zm18-2c2 1 2 2 1 3l-1-3Zm1 6h1v2l-1-2Zm-20 8c-2 0-2-4 0-4v4Zm-31-1h8c-3 2-6 1-8 0Zm46 0h6c-1 2-5 2-6 0Zm-45 11c1-3 5 1 2 2l-2-2Zm35 0c1-3 5 0 4 2l-4-2Zm22 1c2 0 4 1 4 3l4 15-4-11-3-1-1-6Zm-31 5 1-3c1 1 1 2-1 3Zm-13 2 1-4c1 1 1 4-1 4Zm19 0c-1-1-1-2 1-3l-1 3Zm-39 1 1-1-1 1Zm32 5 1-5c1 1 1 5-1 5Zm-7-4h1l-1 2v-2Zm41 0v6c-2-1-2-5 0-6Zm-48 6 1-3c1 1 1 2-1 3Zm20 0c-1-1-1-2 1-3l-1 3Zm70-1 11 15-2 1c-4-5-7-10-9-16Zm-98 2 1-1-1 1Zm-158 1c0-2 4-2 4 0h-4Zm165 2 1-2v2h-1Zm63-2 1 2h-1v-2Zm-49 5v-4c2 1 2 4 0 4Zm36-4v5c-2 0-2-4 0-5Zm-29 7c-2-1-2-5 0-6v6Zm22-4c2 0 2 4 0 5v-5Zm21 0 1 2h-1v-2Zm-51 9v-4c2 1 2 4 0 4Zm-179-3h2c-1 2-1 2-2 0Zm410 1h3c0 2-3 2-3 0Zm-225 7c-1-1-1-2 1-3l-1 3Zm32-2 1 2h-1v-2Zm-39 5 1-4c1 1 1 4-1 4Zm-78-1c0-2 0-2 2-2l-2 2Zm85 6c-2 0-2-5 0-5v5Zm40-4 1 4h-6l5-1v-3Zm-75 3h8c-3 1-6 2-8 0Zm54 0h6c-1 2-5 2-6 0Zm-24 10v10-10Zm-61 1c2 0 2 3 0 3v-3Zm9 0h2l-2 1v-1Zm5 0c2 0 2 4 0 3v-3Zm62 2c2 5 1 10 1 15l-1-15Zm106 0h2c-1 2-1 2-2 0Zm-189 3Zm168-1 12 15-2 1-10-16Zm-164 4 1-1-1 1Zm32 1 1-2v2h-1Zm7-1h1l-1 2v-2Zm66 0v4c-2 0-2-3 0-4Zm-74 6 1-3c1 1 1 2-1 3Zm7-2h1l-1 2v-2Zm9 4v-4c2 1 2 4 0 4Zm-58-1Zm133-1 1 2h-1v-2Zm-51 6c-2-1-2-5 0-5v5Zm-8 7 1-11-1 11Zm-33-7 1-3c1 1 1 2-1 3Zm93-1 1 3c-2-1-2-2-1-3Zm7 1h1v2l-1-2Zm-101 6 1-4c1 1 1 4-1 4Zm69-4c2 0 2 3 0 4v-4Zm-28 12Zm-35-3c-1-1-1-4 1-4l-1 4Zm-7 2 1-5c1 1 1 5-1 5Zm71-3c2 0 2 3 0 4v-4Zm-12 4c-1-1-1-2 1-3l-1 3Zm-53 3c-1-1-1-4 1-4l-1 4Zm18 0c-1-1-1-4 1-4l-1 4Zm11 2v-6c2 1 2 5 0 6Zm-36 0 1-5c1 1 1 4-1 5Zm17 3 1-4c1 1 1 4-1 4Zm83-4 1 3c-2-1-2-2-1-3Zm-27 1c2 0 2 3 0 4v-4Zm-67 4c-1-1-1-2 1-3l-1 3Zm-67-2c2-1 6 0 5 3l-5-3Zm60 3 1-2v2h-1Zm25-2h1l-1 2v-2Zm-71 2h1-1Zm189 0h3c0 2-3 2-3 0Zm-136 5c-2-1-2-2 0-3v3Zm37 4c-2-2-2-6 0-7v7Zm31-5c2 0 2 3 0 4v-4Zm37 0h1v2l-1-2Zm-114 3 1-2v2h-1Zm126 0c1-2 2-1 1 0h-1Zm124 1 9 10c-6 2-12 7-17 11-4 3-7 7-9 11-1-2-2-4-1-6l4-8 7-10 7-8Zm-71 2c1-1 2 0 2 1v2c-1 1-2-2-2-3Zm-15 0 3 4h-2v-1l-1-3Zm-19 1 5 5h-5v-5Zm-67 1c2 0 2 3 1 4l-1-4Zm-141 4c-1-1 1-4 2-3l-2 3Zm47 1 2-1-1 14c0-4 1-9-1-13Zm-67 1 1-1-1 1Zm229-1 1 2-1-1v-1Zm-149 4 1-3c1 1 1 2-1 3Zm39 5 1-8-1 8Zm20 22 1-29c0 10 1 19-1 29Zm-40-24v-4c2 1 2 4 0 4Zm-20 2 1-2v2h-1Zm124 0h1v2l-1-2Zm-105 7v-5c2 1 2 5 0 5Zm106-4h1v2l-1-2Zm1 3h1v2l-1-2Zm-79 4c-1-1-1-2 1-3l-1 3Zm38-1c2 1 2 2 0 3v-3Zm-67 5 1-3c1 1 1 2-1 3Zm-21 0 1-2v2h-1Zm20 6 1-4c1 1 1 4-1 4Zm52-2v4c-2 0-2-3 0-4Zm-74 3 1-2v2h-1Zm7 5c-1-1-1-2 1-3l-1 3Zm22 3c-2 0-2-5 0-5v5Zm-41 0c-2 1-2-3 0-3v3Zm150-2c2-1 2 3 0 3v-3Zm-192 3c-2 0-2-3 0-3v3Zm-18 1h3c0 2-3 2-3 0Zm21 1h3c0 2-3 2-3 0Zm83 0h4c0 2-4 2-4 0Zm99 0h3c0 2-3 2-3 0Zm-172 23 1 4v15l-1-19Zm9 1 13 1h-12v133c0 11 1 22-1 32V558Zm22 0 15 1h-14l-1-1Zm34 0h4a260 260 0 0 1-1 1l-3-1Zm12 7 1-7c0 7 1 14-1 21v-14Zm3-7c1-1 5-1 5 1l-5-1Zm-57 1 1 4v160l-1 18V559Zm82 1c1-2 5-2 6 0h-6Zm18 1 1-1v2l-1-1Zm-9 22v-22 22Zm-60 2 1-22v156l-1-11V585Zm-8-21 1 9v172l-1-17V564Zm53 19 1-18-1 18Zm23-9 1-9-1 9Zm22 8v-13 13Zm-8-2v-10 10Zm-161 0 1 15v145l-1-30V580Zm183 13 1-12v227l-1 10V593Zm-89-11 6 1c-2 1-5 2-6-1Zm67 1 5 2-2 1 3 2h-11l6-1-1-4Zm-22 2c2 0 1 4-1 3l1-3Zm-43 3c1-2 4-2 5-1-1 1-3 2-5 1Zm96-2v10-10Zm22 14 1-14v132l-1 24V600Zm-112-13h6c-2 2-5 2-6 0Zm68 16c-2-2-2-6 0-7v7Zm52-3c-2 0-1-2 0-3v3Zm-63 7 1-7v29l-1 21v-43Zm69-6h1v209l-1 6V601Zm-92 3h16l-15 1v11l-1-12Zm69 16 1-16v17l-1-1Zm-110-15 1 40-1 7v-47Zm167 32 1-31v63l-1 31v-63Zm-109-17 1-12v16h-3l1-1 1-3Zm84 27c1-13-1-26 1-39v32l-1 24v-17Zm-131-32 1 37a238 238 0 0 1-1 1v-38Zm-50 23 1-14v104l-1-14v-76Zm188-1 1-12-1 12Zm-132-9 7 1h-6v17l-1 1v-19Zm25 0 15 1h-15v-1Zm16 1Zm-128 41 1-36v89c-2-17-1-35-1-53Zm144-36 1 20c-2-6 0-13-1-20Zm-28 19h15-15Zm102-1 1 1h-1v-1Zm-150 10v-5c2 1 2 4 0 5Zm77-4c2 1 2 2 0 3v-3Zm80 2 1 5-4 1h1l2-6Zm-126 3c4-2 9-1 13 0h-13Zm-21 1c0-2 4-2 5 0h-5Zm-9 0 4 7h-3l-1-7Zm52 20c0-6-1-13 1-19l-1 19Zm23-19v28l-1 14v-26l1-16Zm-46 18 1-16v31l-1-15Zm127-12 2-4c1 8 0 16-1 24-2-5 1-10-1-15v-5Zm-4-2c1-2 4-2 4 0h-4Zm-86 17 1-17v38l-1-21Zm86-9 3-1c0 1-2 2-3 1Zm-131 0 1 15v14c-2-9-1-19-1-29Zm-22 4 1 1v21l-1-9v-13Zm2 25h7c-1 2-6 2-7 0Zm51 1 1 3c-2-1-2-2-1-3Zm-49 4c1-1 3 0 5 1-1 1-4 1-5-1Zm-4 12 1 20v25c-2-15-1-30-1-45Zm151 3Zm-92-1h5v47c-4 0-8 1-11-1h10v-45l-4-1Zm-16 20 1-19-1 19Zm9-18h1l-1 2v-2Zm-20 18 1-15v40l-1-25Zm44-14v14-14Zm-144 25 1-24v80l-1-24v-32Zm237-16 1 34-1 14v-48Zm-208 2h2l-2 1v-1Zm25 6 1-5a533 533 0 0 0-1 10h-5l1-4 4-1Zm-79 38 1-42v78h-1v-36Zm252-30c-2-4-2-8-1-12l1 12Zm-45-10h7v8c-2-2-4-2-7-3v-5Zm-198 18 1-16v71l-1-13v-42Zm43-12h4c0 2-3 2-4 0Zm148 1c1-2 4-2 5 0h-5Zm5 1 1 1v1l-1-2Zm-133 3 1-2v2h-1Zm142-3c2 17 0 34 0 50v-50Zm-108 16c-2-4-1-9 0-14v14Zm-58 0 1-13v56l-1 6v-49Zm9-11h1l-1 16v-16Zm14 21c0-7-1-14 1-21v51l-1-30Zm46-21 1 12h-1v-12Zm74 17 1-16v59l-1-7v-36Zm61-9c2 0 2 3 0 3v-3Zm-235 6h3v4h-4l1-4Zm17 0 1 20-1 19v-39Zm74 8 12-1h32l6 1h-50Zm0 4 1 1-1-1Zm-14 3 1 15-1 17v-32Zm32 14c-2-2-2-6 0-7v7Zm-69 16v-22 22Zm112-8 1 9-1-9Zm-44 3 1 6c-2-1-2-5-1-6Zm-45 4 1 3c-2-1-2-2-1-3Zm51 5 4-1c0 2-3 2-4 1Zm-48 0 2 1h-2v-1Zm5 1 3-1c-1 2-2 2-3 1Zm-25 0h3c1 2-4 2-3 0Zm156 0h4c0 2-4 2-4 0Zm23 0h4c0 2-4 2-4 0Zm-159 10c5-2 10-1 15-1h71l-21 1h-65Zm95 4c-1-1 0-2 1-3 1 2 0 2-1 3Zm-93-2v2l-1-1 1-1Zm-38 2h4c0 5 1 9-1 13l-3-2v-11Zm37 1 30 1h-18c-4 0-8 1-12-1Zm-4 11 9-1h17l-26 1Zm73-1h22-22Zm27 6v-1 1Zm-100 0h100l-14 1h-72c-5 0-10 1-14-1Zm-5 10 14-1h99v3l-6-2H449Zm111 6v-2l1 2h-1Zm-47 0h36l-7 1h-29v-1Zm264 2c2 0 2 3 0 3v-3Zm-23 1h1v1l-1 1v-2Z"/>
  </symbol>
  <symbol xmlns="http://www.w3.org/2000/svg" aria-hidden="true" viewBox="0 0 1137 879" id="europe">
    
    <g fill="#fff">
    <path d="m550 7 6-4c2 0 4 2 5 3l4-1c1 3 4 5 7 5l-2-4c5 1 9 5 14 7l-6 8-9 2 8 2c0 3 1 5 4 5l1-4 5 1 2 4h-5l-5 8-1 7-4 4 4 6c-2 4-1 8 2 12 3 1 6 0 9 2l8 7c0 7-4 13-4 20l8 9c4 5 9 11 12 17l-3 1 1 8c0 2 2 3 3 3l-2 6 9 4c-1 2-2 5-1 7 3 2 7 2 10 5 0 4-4 8-3 12 7 5 16 6 21 13 0 6 0 13-3 19-5 14-9 29-18 41l-3 9c-7 1-13 5-19 7l1 3c-3 0-6 0-9 2-5 5-11 7-16 11-4 1-8 3-10 6l-1-6-7 3v-8l-6-2-1 3-3-5-3 2-4-10c2-5 1-9 1-14s-4-8-6-13l1-4c-3-3-5-6-6-10 1-3 3-7 3-11l-5-2 10-1c3-1 2-4 2-6l2-6 2-1c3-7 8-13 10-21 2-4 2-8 5-12 1-2 4-2 6-3-4-4-4-9-5-13-4-1-7-2-10-5-6 1-10 4-16 4l-3 1c-1 2 0 5-3 7-1 2-3 2-5 3l2 8c-1 2-4 5-4 8l7 7-4 6c-1 3-1 7-3 10l-6 6-11 12-4 4v4l-3 4c0 4-2 6-4 9l-3-2-1 3c1 1 3 3 3 5l-1 7 2 6-5-1 3 14c1 5 1 10 5 12l5 1 5 4 2-3 2 8c4 1 5 5 7 8-4 2-6 6-8 10l5 1-9 11-3-1-2 4c-3 2-6 5-7 9l-2 2 3 12-4 1 3 3-2 4 2 2c-2 6-2 12 0 17l3-3c0 5 0 11-2 17-2-3-1-7-2-10h-2l-3 13h-15l-1 3c-2 0-5 1-6 4s1 6 3 9l-3 3h-6l-6 2-7-1 1-8-5-7c-1 4 0 7 1 10l-6 2 4 5-5 4 5 4c-4 1-6 5-7 9-5 0-10-2-14-4l2-4 7 2c3-1 2-5 3-7l-8-1c0-5 0-9-3-13h4l4-5 2 4 3-1-3-4 10-4-2-3 3-1 1-3 2-1 1-2c-5-5-9-11-12-17s-4-13-8-18l-3-9c-1-5 0-10-3-15l4 1 1-3c-2-2-5-2-8-2-3-3-2-7-3-10l-2 2c1 5-2 10-5 14-2-1-5-2-7 0-3 2-3 7-6 9l-10 10-3-1c-5 5-13 4-19 1l2-3c-5-2-8-5-12-8-3-3-2-7-1-11l2 2 1-1 5-8-3-1 3-5h-5c-1 2-3 5-6 6v-6l7-5-1-7 3 1 4-4-4-3-2 4c-4-1-6-4-7-7l5-1 1-2c-3-2-6-4-7-7l2-9-2-4 4-6-3-3 6-10-3-2c3-1 5 0 7 2l3-6 9-2-5-4c4 1 8-2 11-5l-5-4c3-1 6 1 9 2 4-2 6-6 10-4l3 1 2-4h-6l6-6 3 3 4-4c0-3 0-5 2-7l4-8 5-7 5-4 4 4v-6c-1-3 1-5 2-7 5-1 9-4 12-7l-8-1 5-10v-4l5-5-5-1 3-4v-7l2-4a431 431 0 0 0 7-3l-3-2 2-4 3 3 4-2-3-6 7-11-2 2-3-2c2-5 7-5 11-6v-2l-7-2 6-1 6-8-3-4-1 4-4-2-3 3c-1-4-5-5-6-9l11-5 1 7 2-6c3 3 5 7 10 7l-1-4c2-2 3-5 2-8l2-3-3-1-5 5c0-2-1-6 2-8l5-4h5c3-1 4-5 5-8l-4-4c2-1 5-2 8-1l-2 5c3 0 5-2 6-3l7 1 3-6-4-5c2-1 4-3 6-2l10 1 2 6 3-2-3-2 1-5c-2-1-5-2-4-5 2-5 8-3 12-5l-3-4 1-5 6 1-1-7 3-1 3 2-2 4c1 5-3 8-2 13l-1 8 3 1c1-8 2-16 7-23l2 11 2 1 2-2-2-5 3-4-3-3m10 0v4c2-1 2-5 0-4m-2 8 3 1v-4l-3 3m-48 22v5l4 1c1-2 0-5-1-7l-3 1m-10 14 2 3 3-1-3-3-2 1m-14 7c-2 1 0 3 1 3 2-1 1-4-1-3m-27 17 6 4-2-5-4 1m19 6 2 3 4-2-2-3-4 2m-9 8v5c0 2 3 3 4 4 0-3-1-6-4-9m-7 10 1 3h3l-1-4-3 1m-23 58c-2 1 1 4 2 2 1-1-1-2-2-2m-20 41c3 2 6 3 10 2l-4-4 4-3-1-3-9 8m-5 8 9 1-3-6-6 5m-19 13v3c2 0 2-3 0-3m-13 35v3c2 0 2-3 0-3m-1 6 1 4 4-3-5-1m-23 2v3c2 0 2-3 0-3m18 1-1 2 2 4 3-1-4-5m129 34-3 3-2-2 3 6 4-1-2-6m-14 3c3 0 6 1 9-1-3-1-6-1-9 1m22-1v3c2 0 2-3 0-3m-6 4 1 2 3-1-1-3-3 2Z"/>
    <path d="m513 21 8-3c-1 3-3 6-6 8l-2-5ZM101 57l3-1c2 2 5 3 6 7l2 10 1 5c-2 1-5 2-5 5-2 3-2 7-2 10l9-10v6c2-1 4-3 5-6l2-8c1 2 3 2 3 4l1 9 2-1 2-6 8-1v7l2 1 2-5c4 0 3 5 4 7l6-3 7 3 1-7c1-1 4-1 5 1 2 3 1 7 1 10l5-2-2 4 5 4-4 5 9 10-7 5c2 2 4 2 5 5-4 3-8 7-13 7l-5 4-5 3-3-5-3 3-7 1c-2 1-5 3-7 2-5 0-10 0-14-2l-3 5h-9l-8-8-5-5c-1-3-2-7-5-9-4-3-9-4-14-6l2-6c2 3 6 5 9 3 2-6 0-12 1-17l-8-6-8-2c2-1 4-2 6-1 5 1 10 0 14 3h2l-2-3c4-1 7-4 10-8v-2l-3-1-4 3v-2l-11-1-5-6c1 0 1-3 3-2l3 5 2-1-2-6 5 4v-6c3 0 5-2 7-4 2 3 3 7 2 11l4 2c1-1 2-3 1-5-1-3-3-6-3-10M90 70c-1 1-1 3 1 2 1 0 1-2-1-2m6 20 4 3 1-3h-5Zm350-2 3-1 1 2-4 4v-5Z"/>
    <path d="m171 94 5-4 1 2-6 2Zm107 168 10-5c-2 3-5 5-5 9-2 4-3 9-6 13l2-6-5-4 3-2 1-5Zm253 12 5 2-2 6-7-2 4-6Zm96 4c3 0 5-2 8-3l-2 7c1 4-2 7-2 10 1 4 4 9 4 14l4 6h2c-1 3-4 5-4 8l8 7 1 8c3 5 8 8 10 13 2 3-2 6-3 8s-1 6-4 7-6 1-7 3c-3 3-3 8-3 12l4-1-1 4-4 2-5 9v10c-1 2 2 2 3 4l-1 3-2-1-1-3-4 1-1 4-3 1c-1 3-3 5-6 7-4-1-8 1-12 2 2 10 11 17 11 27-3 5-8 8-10 14 3 1 7 0 9 3v11c2-1 6 0 8-2l4-7c8-1 16-6 24-5h14l5 2 12-3c3-1 7 0 10 1l3-5c3 0 4 3 6 5 3-4 8-5 12-6l4 3 4-2c-2-3-4-5-4-8l4-10c4-4 9-5 14-5 4 0 3-4 4-7l6-1 7-5 7-2c2 2 5 3 6 6l7 4-4 4 6 8h7l5-2c5 3 10 8 10 14 2 0 5 2 7 1l4-3c2 1 3 3 5 2 6 0 9-6 15-8 3 0 5 3 7 4l6 3 2-4h13l2-2c5 1 11 3 16 1l4 6-4 10h7l-5 5 8 8 2 11c-4 3-10 4-14 6l-1 5-5 5c1 4 4 7 4 11-3 2-7 2-9 5-2 2-3 5-6 6-2 2-4 4-4 7l-4-1-3 6h-5l-5 8c-3 3-2 8-5 12l1-8-5 6v3l11 11-2 3 4 1-1-4 7 3c4-5 10-10 17-9-2 2-3 5-1 8l-8 4-7 1-5 9-7 4c-3 3-3 9-7 12-3 3-8 1-11 0 0-4 1-8-1-12-1-3-5-2-7-2-3 0-5-2-8-1l-6 1c2-8 10-13 15-20l-9-2-15 6c-5 1-10 1-15-1h4l6-4-2-3 6-1 1-1c-4-1-9-1-14 1-5 1-9 3-13 7 1 7-1 15-7 19-2 2-2 6-5 7 0 3 1 4 3 5v16l-8 2-2-5-3 2 5 5-5 12c4 6 1 13 4 19l-1 3c-2 1-4 0-6 2-3 5-1 11 0 16l-7 9c5 0 9 4 12 8 2 3 2 7 5 9 3 3 8 3 12 4s7 2 10 1l12-2 8-4h10l7-2c0-3 1-6 3-8 6-4 9-11 14-16 3-2 6-3 8-6 8-8 20-5 29-10 2-2 2-7 6-6 1 3 1 6 4 7 2 1 4 2 6 1l7-5c4 1 5 5 7 8 2 0 4 0 6-2 2-1 3-4 5-3l10 3c3 0 5-2 8-4l3 3 11-3c4-4 8-8 12-10l5-1 11-2c4-2 5-6 7-9l8-8 3-11v-6l-9-9c-1-2-2-5-4-6l-6-1-6-3c-3-1-6 2-10 1l-9-4c1-1 1-4 3-4l9-3h8c4-1 9 1 12-1l7-4 12-3 5 3 9-2c3 0 5 5 7 3l7-8 6-1 1-4 8 2 7-3 2 7 6 2c5-1 10-3 14-2s8 3 13 2c0 2 1 4 3 4 3 1 6-1 9-2 0-8 4-15 5-22 5 2 11 4 15 8l7 5 8 4c4-1 6-4 10-4l6 3-9 4c0 3-2 5-3 8s1 5 2 8l1 8 3 3 1 11c-1-2-3-4-5-4 1 6 3 13 6 19l-4 1-4-2c-4 1-7 0-10-1l3-8c-2 0-5-1-6-3l3-4-10-4-7 10c-2 4-2 9-5 13l-3 8c-4 3-7 7-12 8h-8l-14-7c-2-2-6-2-8-2l1 10-6 3 6 5 3 6 5 8h4v12l7 1c2 2 2 5 3 7l6 2c-2 4-5 7-6 11-1-3-3-5-6-7l-5 6c-3 2-7 1-11 2l-8 4-4 8-5-3c-3 7-10 11-17 13s-12 8-17 14-12 11-19 14c-5 2-10-1-15 0-5 2-7 9-13 12l-8 3 1-2h-9l1 8 4 6-4 2-3 11-3-1c-1-3-4-6-7-8l5-9c2-3-2-5-3-7-5 2-4 9-9 12-5 6-12-2-18 1-4 5-7 10-7 16l-10 7c-5 2-10 3-13 7-3 0-6 0-8-2-3-2-6-6-11-6-8-1-17-3-25 0-2 1-1 3-1 4v11l-6 2c-3 2-6 6-10 5s-9 0-11-4c-1-3-2-6-5-7l-1 5c-3 0-5-2-6-5l-1-1-5 6c-4 1-8 0-10 3l-6 2c3-3 7-5 11-6l1-3h4v-5c-6 3-12 6-19 6l-4-2c4 0 7 0 9-4l-5-4-5 2 1-4c-3-1-5-2-8-1l-6 1 6-3c2-1 4 0 6 1v-8l-8-1-3-3-2 4-8-4 4-2-2-7c3 1 4 5 8 5h3l-5-6 5-7-5-1v-4l-5-2 4-7c-5 0-9 3-14 5l-1-2c1-5-2-9-1-14l1-7c2-3 5-4 7-8-4 1-8 4-12 4l-4-4h-18c-2 0-3 2-5 4l3 5-4 1-2-3 2-3-5-2-3 6-9 1 5 8-3 3c3 1 5 3 7 6l-2 1-5-5c-3-1-5 1-8 1s-5-2-8-3v-5l-2 3-2 1-1 9 8 10 10 9v4l6 5c4 2 9 0 13 3l4 9 7 1-1 4-5-1-6-7-4-1 4 4c-1 5 3 9 2 14l-8-5c-4-1-8 0-11 2l5 8 3-3 3 5-6 4c-3-3-6-5-10-5 1 5 4 8 7 12l6 14-11-8c-2 3-3 7-2 10h-2c-1-3-1-5-3-7l-6-5-1 8c-4-2-6-6-7-9v-7c-1-4-7-4-10-8l-3-1 5-9c2-1 5-1 6-4l-12 1c-1-4-4-7-8-10l-2 5-3-2 4-5c-2-5-7-8-10-11-3-2-4-7-8-8v4c0 2 2 4 4 6-4-2-7-6-10-9l5-2c0-2 0-4-3-5l-9-7-1-6v-12l-1-9 2-8c-3 0-6-1-8-3-3-3-5-6-9-8-7-2-12-7-19-9l-2 3-1-3c-3-1-4-4-5-7-2-1-4 1-6 1l2-3-3-3-6 3 2 4-6-2 2-2-3-3 4-2-4-1-1 3-7-3-1-4-15-8c0-2 1-5-1-7l-7-9 4-2-2-7-2 1 1 4-6-2 2 12-3-1c0-5 0-9-2-13l-6 8-5-7-3-9 5-3-3-5c-4 3-8 3-12 5l-11 5c0 5 3 9 6 13l-6 4c2 5 2 10 5 14 1 3 3 3 6 5 4 1 7 5 11 7l4 3c4 6 4 14 8 20l14 13 9 3c6 1 12-2 18 0l-5 10 19 7c5 1 9 5 14 6l6 2 5 6c3 2 6 3 7 6l-2 10-5-3-4-8-9-1-8-4c-5 5-6 12-8 18-1 2 0 4 1 4 4 1 8 2 11 5l3 8c-3 4-7 5-11 6-4 3 0 8-1 11-2 2-5 3-6 6-2 3-3 8-7 8-4-1-4-5-6-8-3 6-7 13-8 21l5 8c-2 2-4 5-3 8l-9-1c-4 0-5-4-7-6s-4-1-6-1c-4 0-6-2-9-4-5-2-10-6-15-6-4 0-7-2-8-6 0-4 4-6 6-8l2 3 7-5c4 1 8 6 13 5l11-2 8-4 4 1c3-5 9-4 14-5 2-3 1-6 1-9 2-1 5-2 7-5l-5-9c0-4-2-6-4-9s-1-8-4-10h-7l-8-4 2-5-4-5-9 3 2-4c-2-3-5-2-8-1-1-5-3-8-7-11-4 0-8-1-12 1-3-4-9-6-12-10-4-2-5-7-9-8-3-2-4-5-6-8l-9-1 2-3-13-11v-7l-4-9-2-8-10-4c-4-4-8-6-14-7-1-1-3 0-4 1-4 3-7 8-10 12-4 2-8 1-12 2l-3 5c-5 1-11 3-12 8-4 2-9 3-14 2l-1-2-5-1c-3-5-9-5-14-4l-1-3-10-3c-2-1-4 1-6 3-3 2-6 4-10 4-1 4-3 7-2 11 0 4 2 7 4 10l-4 3c1 3 2 6 0 8l-13 7c-5 1-7 6-12 6l-17 2-6 5 3 3c-3 1-7 3-9 6-4 7-11 11-16 18-3 4-1 10 0 14 1 3 5 5 7 8-5 3-13 5-17 11-1 2-1 5-4 6l-3 2 2 7c-5-1-11-3-16 0-6 3-8 11-14 15l-6-3c-3 0-5 2-8 1-3-2-8-1-12-2l-16-4-6 3c-4 3-9 0-13 2-3 3-6 6-9 7l-8-7c-3-2-3-7-4-10l-1-9c-4-5-9-8-15-10l-10 3-11-5c-4-2-7 0-11 0l5-9 3-15c1-3 4-6 2-10-2-1-5 0-6-2l-4-8c1-4 5-9 5-14 8-2 11-10 14-17s9-13 9-20c-1-7-2-16 3-22-1-5 1-11 4-15v-6l-5 1-3-6 4-5c9 2 17-4 25-8l1 2h5l6 9c5-2 9 1 14 1 4 0 8 0 11 2l13 6c4 2 8 4 13 4 3 0 6-2 9-1l8 6 7-3c3 4 7 7 12 7 4 0 8 0 10-3 4-3 4-7 5-12 4-11 5-24 10-36l4 1c-4-4-2-10-2-14 0-6-6-8-10-11l-4-11 3-4-7-6 3-5-1-2-6 1c-1-3-2-4-5-5l-1-3c-5 0-9-4-13-7l-5 3c0-3-1-6-4-8l6-1-2-5h-4l-1-3c5-6 14-5 21-3l2-3 6 1c2 2 3 6 6 8 2 1 4-1 6-2l3 6 3-4c3 2 6 2 9 1-1-2-3-3-3-6 1-3 2-6 1-9-2-3-3-7-3-11l10 2v5c3 3 7 3 11 5 2 1 4 3 7 3 4-3 3-7 6-10s8-3 12-4l11-5c-2-5 0-11 1-17 6-3 12-2 18-4 5-2 10-4 13-8 5-6 12-11 16-18 4-5 3-11 5-17l5-6c-2 3-3 6-3 10 6-3 11-9 16-13 5-1 11-1 15 2 2-3 3-5 3-8 3-1 8-1 11 1l9 3 1-7h5v-10l-4-1 4-7-6-8 2 1 1-3-2-2 2-9-3 2-5-4 5-10c-5-5-4-12-2-17l2 3 2-1-4-5 5-7 9-2c4 0 5-4 7-6 2-4 6-5 10-7l-1 8c1 4-1 7-2 10-1 4 0 7 1 10 2 0 5 0 7 2 0 3-2 6-4 9l-4-2c0 6-4 11-7 15l11-1 4 9-4 5-8-3-5-8-1 9c2 1 5 2 7 5h-6l7 10c2 2 6 3 9 4 3 0 4-4 5-6l2 2c-2 4-3 8-7 11 2 1 5 2 8 1 2 0 4-3 5-4l7-1 6-7c2-1 5 0 7 1 1-3 1-5 3-7 4 1 5 5 6 9l-4-1-1 5h5c4 1 7 6 11 4 5-1 9-4 13-6l11-4 6-8 8-4c5-4 11-6 18-5 0 4 0 8 3 9h9v2l2-5c16 0 31 2 46-3-2-4-1-9-1-13-3-4-8-3-12-3-5 0-10-3-14-5l-5-21-2-11c1-4 5-6 5-10s-1-8 1-12l10-6 7 7c4 1 4 7 8 8h6c3-3 6-6 6-10-1-4-5-8-5-13l1-12-3-1-2 5-5-1-7-10 3-5-4-2-1-2 6-4 3-5 14-4c2-1 2-3 3-5l22 1m-230 89 1 3h3l1-8-5 5m72 72c3 2 5 3 8 3 2 0 2-2 3-3h-11m-83 8c-1 1-1 4 1 4 1-1 1-4-1-4m-16 5c-2 1 0 3 1 3 2-1 1-4-1-3m-29 12c1 2 0 4-2 6l3 3 5-4 1-4-4-7c-2 2-3 3-3 6m-16 33c-1 1-1 3 1 2 1 0 1-2-1-2m496 59c1 2 1 5 3 6 1 2 2-1 3-2l-4-2v-3l-2 1m-7 2-1 4 6-1 2-4-7 1m-4 1v3c2 0 2-3 0-3m17 3c-2 1 1 4 2 2 1-1-1-2-2-2m-600 68v3c2 0 2-3 0-3m260 15-2 4 4 3 2-5-4-2m-268 1v2-2m105 43 3 3 1-3h-4m435 21h-12c-3 0-5 4-8 4l-4 1c-2 3-2 7-5 9l-8 7c3 1 6 0 9-2 4 2 9 3 12 0l-3-4 6 1c3 1 6-1 9-1l11-2-1-3-6 1c3-3 8-5 9-9-3-1-6-3-9-2m14 1c-2 1 1 4 2 2 1-1-1-2-2-2m-56 29c-1 1-2 3 0 4 2 0 3-4 0-4m-61 35 4 2 4-3-4-3c-2 0-3 3-4 4m3 10 9 3 1 3 6-2-11-7c-2 0-4 2-5 3m-15 13c4 5 11 2 16 5l7-2-1-2-11-2-2-1-9 2ZM253 290c0-1 2 1 1 2 0 1-2-1-1-2Zm-7 7 6-5 2 8-3 4 1-5-6 3v-5Z"/>
    <path d="m568 300 7 2-4 8 8 2-4 6-7 4 1 5-4 1 2-5-4-3 1-4c1-2 4-3 5-6l-2-6c-1-1 1-3 1-4Zm-373 8c4-3 9-4 13-5-2 3-5 6-5 11l-10 6c-1-5 1-9 2-12Zm28-5c8 4 18 4 26 3-1 3 0 6-3 8l-14 9 1 3h2a1378 1378 0 0 0-3 6c3-1 6-3 9-2l17 4v5l-4 7c-4 6-8 12-14 16l2 4c-4 0-7 2-9 5 3 1 7-1 10 1l7 7c1 3 3 5 3 8l1 10c1 3 0 7 2 11 3 2 7 3 8 6l6 9-3 1 4 10-3 1c2 3 5 6 6 10-1 3-4 4-6 6l3 4 5-4c5 2 11 2 14 6 3 5 1 12-2 16l-6 7-4 1-1 4-4 3c3 2 6 2 10 3 1 2 2 5-1 6l-5 2-3 2-10 3c-4-1-7-3-11-2-3 1-6-1-9-2l-2 5-7-4c-3-1-6 2-9 1-4 0-7-3-11-4-2-1-5 0-8 1l-5 9c-5-3-10-6-15-6-4 1-6 4-9 6l-4-4-3 2v-3c3 0 6-1 8-3 5-4 12-7 14-14h4c1-1 1-3 3-3 5-2 10 3 15 2l8-6v-2l-8 2c-2 0-4 2-5 0-3-1-3-4-4-6h-6l-2-4h-9c-3-1-2-4-2-7l16-4c4-2 4-7 5-11l-2-6-6 2 6-6-3-6c1 0 3-2 4-1 5 4 10 5 16 4 3-2 4-8 4-12 2-2 4-5 4-8l-5 2-5-12 8-9-12 3-4-5-1 5-5-5-2 4-3-7c5-3 8-9 12-13l-7-9-3 2c3 2 3 5 2 8l-5-3c0 3-2 5-5 5 3-5 7-11 5-17l-8 8-5-4 9-4c5-2 7-7 11-11l-3-1-3 4h-8l3-3-2-4 4-3 5-1c0-2 1-5-1-7-2-4-8-7-7-12h4l3-3 1 6 5-2v-6l9-1c-1-2-3-4-1-6 3-3 5-6 6-10m-19 26v4l3 1 1-5h-4m6 39v4c2 0 2-4 0-4Zm-23-48h5c-2 4-5 8-5 13l-2-1c1-4 3-8 2-12Zm333 22c2-5 7-8 11-9l-4 7v10l-6 9c-1-6-5-12-1-17Z"/>
    <path d="m159 377 16-4 4 6c5 0 10 1 12 5l-1 4 4 4-1 3c1 1 3 3 3 5-1 2-1 4-3 5l-4 1c-3 2-5 4-9 5v18c0 9-8 16-10 24-5-2-11-2-16-2l-12 5-3-1-5 3h-12l-2-2-3 2-1-2 3-1-1-3-6 2 3-5-6-3 4-4-3-4c3-2 6-3 9-2l4-4 5-6 5-6 6-2c-7 0-13-4-16-10 3-3 7-6 11-7l-4-1c1-3 0-5-1-8l1-3c3 0 7 0 10 2l10 5 2-4 7-2-8-4v-3l5-1c1-2 0-5 3-5m14 3 3 3 2-2-1-3-4 2m-39 50c-1 1-1 3 1 2 1 0 1-2-1-2Zm343-24 6 3-1 4-6-4 1-3Zm57 4c1-1 3 0 2 2-1 1-3-1-2-2Zm-113 6 4-4-1 5-3-1Zm-53 27c3 0-1 3 0 0Zm402 121c0-2 3-2 3-1s-2 2-3 1Zm3-1h1-1Zm1 0c1 0 1 0 0 0Zm0 0ZM536 700c1-1 2-3 4-3 1 0 3 1 2 3h-6Z"/>
    <path d="M533 699c1 0 4 0 3 2s-5 0-3-2Zm-131 5 1 6c-1 4 2 7 2 10l-2 8-2 9-4 8-1-3c-2-1-5-2-6-4l-1-6-2-1 3-4-2-2c0-4-1-8 3-10 2-2 6-3 9-4l2-7Zm297 32c1-2 4-1 6 0h-6Zm-27 6c1-1 4 1 2 2-1 2-3 0-2-2Zm3 1 7 5c-3 0-5-3-7-5Zm-277 4 8 4v6l4 6c0 3-3 5-4 8l1 15-3 12-8-3-4 7c-1 2-4 4-5 1l-5-8c0-6 4-12 1-17 3-5 1-10-1-15l-5-1 2-7c3 1 6 2 8 1 5-2 8-5 11-9Zm297 2 7-2-2 5h-5v-3Zm-34 2c3 1 6 2 9 5-4 0-8-2-9-5Zm58 8c4 1 7 4 9 7-5 3-11 0-16-2l7-5Zm-422 11h6c3 1 4 4 5 6-3-2-8-2-11-6Zm-29 10c4-4 10-7 15-8v5l6 1c-1 4-5 7-8 10l-7-6c-1-2-4-2-6-2Zm420-5c2 0 4 2 5 4-3-1-5-2-5-4Zm28 4 3-1c2 2 4 5 4 8l-4 3c0-4-1-7-3-10Zm-465 10c1-2 3-1 5-1-2 3-4 5-7 5 0-1 0-3 2-4Zm3 5c2-2 5 0 7 1l-6 2-1-3Zm443 4 4 1c2 1 3 3 3 5-3-1-5-4-7-6Zm-80 1 3 1-2 4 3 1 1 4-9-2 4-8Zm109 1c3 0 0 4-2 3 0-2 1-3 2-3Zm-21 3 5 4-6-2v-1l1-1Zm-84 9c2 1 5 2 5 5l-3 2-3-5 1-2Zm256 11 14-11-8 11c-2 4 2 5 4 7l-7 3c-1 5-6 7-10 9l-1 4h-10l-7-7 7-5 5-1-2-5c5-1 11-1 15-5Zm-162-9h3l1 4-3 2c-1-2-2-4-1-6Zm-5 2h4l-6 5 2-5Zm55 11 7-7c1 6-3 10-6 15 0-2-2-5-1-8Zm-69 3 5-5-3 6-2-1Zm-594 17c0-3 4-3 6-4l-1 8c-2-1-4-1-5-4Zm568-5c3 2 5 3 5 6l-4-1-1-5Zm85 2c1-1 3 3 1 4-1-1-2-3-1-4Zm-25 18c4-1 7-5 11-6v6l-5 2c-5 0-10 2-15 4l-7 2-6-4c-7-1-14 2-21 1l-1-9 3-1c1 1 2 3 4 2l4-2 4 5 10-4c2-1 5 0 7 1 4-1 8 0 12-2v5Zm-232 12c1 1 1 1 0 0Zm2 0c2 0 2 0 2 2-2 0-2 0-2-2Z"/>
  </g>
</symbol>

  <symbol xmlns="http://www.w3.org/2000/svg" aria-hidden="true" viewBox="0 0 86 74" id="ukraine-heart">
    <path fill="#005BBB" d="M86 23C86 5 71 0 63 0c-7 0-15 4-20 12C38 4 30 0 23 0 15 0 0 5 0 23c0 5 1 9 4 14h78c3-5 4-9 4-14Z"/>
    <path fill="#FFD500" d="M82 37H4c6 12 20 22 39 37 19-15 33-25 39-37Z"/>
  </symbol>


  <symbol xmlns="http://www.w3.org/2000/svg" aria-hidden="true" viewBox="0 0 24 24" id="google-color">
    <path fill="#fff" d="M8.28.65a11.87 11.87 0 0 0-7.5 15.29 12.06 12.06 0 0 0 8.38 7.64c2.06.54 4.24.54 6.2.1 1.85-.43 3.59-1.3 5-2.5a9.99 9.99 0 0 0 3.05-5.03c.55-2.07.66-4.25.33-6.33H12.2v4.7h6.64a5.74 5.74 0 0 1-2.4 3.7c-.75.55-1.73.88-2.71 1.1-.98.22-1.96.22-2.94 0a12.4 12.4 0 0 1-2.72-1.31 7.43 7.43 0 0 1-2.83-3.71 6.95 6.95 0 0 1 0-4.7 7.3 7.3 0 0 1 8.92-4.7c.98.34 1.85.78 2.61 1.54.77-.76 1.53-1.42 2.29-2.18l1.2-1.2a11.19 11.19 0 0 0-3.92-2.4 12.7 12.7 0 0 0-8.06 0Z"/>
    <path fill="#E33629" d="M8.28.65a12.7 12.7 0 0 1 8.28.11 11.2 11.2 0 0 1 3.91 2.4l-1.2 1.2c-.76.77-1.52 1.42-2.28 2.19a7.85 7.85 0 0 0-2.61-1.53A7.24 7.24 0 0 0 7.2 6.88 6.15 6.15 0 0 0 5.35 9.7L1.32 6.66a11.87 11.87 0 0 1 6.96-6Z"/>
    <path fill="#F8BD00" d="M.23 9.6a10.4 10.4 0 0 1 1.09-3.05L5.35 9.6a6.95 6.95 0 0 0 0 4.7l-4.03 3.05A11.96 11.96 0 0 1 .23 9.6Z"/>
    <path fill="#587DBD" d="M12.2 9.71h11.54a12.53 12.53 0 0 1-3.37 11.36l-3.92-2.95a5.36 5.36 0 0 0 2.4-3.71H12.2V9.7Z"/>
    <path fill="#319F43" d="m1.32 17.35 4.03-3.05a7.68 7.68 0 0 0 5.55 4.91c.98.22 1.96.22 2.94 0a6.5 6.5 0 0 0 2.72-1.1c1.3 1 2.6 1.97 3.91 2.96a9.94 9.94 0 0 1-5 2.5c-2.07.44-4.25.44-6.2-.1a13.1 13.1 0 0 1-4.47-2.19 9.34 9.34 0 0 1-3.48-3.93Z"/>
  </symbol>
  <symbol xmlns="http://www.w3.org/2000/svg" aria-hidden="true" viewBox="0 0 24 24" id="arrow-left-line">
    <path d="M7.78032 7.03033C8.07323 6.73744 8.07323 6.26257 7.78032 5.96968C7.48743 5.67677 7.01257 5.67677 6.71968 5.96968L1.21967 11.4697C0.926777 11.7626 0.926777 12.2374 1.21967 12.5303L6.71968 18.0304C7.01257 18.3232 7.48743 18.3232 7.78032 18.0304C8.07323 17.7375 8.07323 17.2626 7.78032 16.9696L3.56066 12.75H22.25C22.6642 12.75 23 12.4142 23 12C23 11.5858 22.6642 11.25 22.25 11.25H3.56066L7.78032 7.03033Z"></path>
  </symbol>
  <symbol xmlns="http://www.w3.org/2000/svg" viewBox="0 0 24 24" id="chevron-down-line">
    <path fill-rule="evenodd" d="M3.12604 9.33405C3.35581 8.98941 3.82146 8.89628 4.1661 9.12604L12.0001 14.3487L19.8341 9.12604C20.1787 8.89628 20.6444 8.98941 20.8741 9.33405C21.1039 9.6787 21.0108 10.1444 20.6661 10.3741L12.4161 15.8741C12.1642 16.0421 11.836 16.0421 11.5841 15.8741L3.33405 10.3741C2.98941 10.1444 2.89628 9.6787 3.12604 9.33405Z" clip-rule="evenodd"></path>
  </symbol>

  <symbol xmlns="http://www.w3.org/2000/svg" viewBox="0 0 24 24" id="call-line">
    <path fill-rule="evenodd" d="M4.3 0h.6c1 0 2 .5 2.4 1.2 1.2 1.6 2.8 3.8 2.8 5.3.1 1.5-.6 2.5-1.2 3.2.3.8 1 1.8 2.3 3.1a11.8 11.8 0 0 0 3 2.4 4 4 0 0 1 2.2-1.2h.8c1.7 0 3.3.8 5.8 2.8.9.7 1.2 1.9.9 3.2-.5 1.8-2 3.7-4.5 4h-.6c-3.3 0-8.4-2.8-12-6.5-3.7-4-6-7.7-6.6-11.2-.7-3.1.8-5.5 4-6.3ZM6 2.2c-.2-.2-.6-.5-1-.5h-.5c-.8.2-3.4 1-2.6 4.3.6 3.7 3.2 7.2 6.3 10.3 3.4 3.5 8 6 10.7 6h.5c2.6-.5 3.6-3.5 2.8-4.1-2.4-1.9-3.6-2.5-4.8-2.5h-.5c-1.4.1-1.9 1.5-1.9 1.5s-2.4-.5-5-3.2c-2.8-2.8-3.2-4.8-3.2-4.8 1-.7 1.5-1.4 1.5-2.5 0-1.2-1.8-3.9-2.3-4.5Z" clip-rule="evenodd"/>
  </symbol>

  <symbol xmlns="http://www.w3.org/2000/svg" viewBox="0 0 24 24" id="close-line">
    <path d="M20.7803 4.28033C21.0732 3.98744 21.0732 3.51256 20.7803 3.21967C20.4874 2.92678 20.0126 2.92678 19.7197 3.21967L12 10.9393L4.28033 3.21967C3.98744 2.92678 3.51256 2.92678 3.21967 3.21967C2.92678 3.51256 2.92678 3.98744 3.21967 4.28033L10.9393 12L3.21967 19.7197C2.92678 20.0126 2.92678 20.4874 3.21967 20.7803C3.51256 21.0732 3.98744 21.0732 4.28033 20.7803L12 13.0607L19.7197 20.7803C20.0126 21.0732 20.4874 21.0732 20.7803 20.7803C21.0732 20.4874 21.0732 20.0126 20.7803 19.7197L13.0607 12L20.7803 4.28033Z"></path>
  </symbol>
  <symbol xmlns="http://www.w3.org/2000/svg" viewBox="0 0 24 24" id="close-small-solid">
    <path d="M18 8a1.5 1.5 0 0 0-2-2l-4 3.9-4-4a1.5 1.5 0 1 0-2 2.2L9.8 12l-4 4A1.5 1.5 0 0 0 8 18l3.9-3.9 4 4a1.5 1.5 0 0 0 2-2.2L14.2 12l4-4Z"/>
  </symbol>

  <symbol xmlns="http://www.w3.org/2000/svg" aria-hidden="true" viewBox="0 0 24 24" id="file-search-line">
    <path d="M0 .75C0 .335787.335787 0 .75 0H20.25C20.6642 0 21 .335787 21 .75V8.25C21 8.66421 20.6642 9 20.25 9 19.8358 9 19.5 8.66421 19.5 8.25V1.5H1.5V22.5H9.75C10.1642 22.5 10.5 22.8358 10.5 23.25 10.5 23.6642 10.1642 24 9.75 24H.75C.335787 24 0 23.6642 0 23.25V.75zM4.5 5.25C4.5 4.83579 4.83579 4.5 5.25 4.5H15.75C16.1642 4.5 16.5 4.83579 16.5 5.25 16.5 5.66421 16.1642 6 15.75 6H5.25C4.83579 6 4.5 5.66421 4.5 5.25zM5.25 9C4.83579 9 4.5 9.33579 4.5 9.75 4.5 10.1642 4.83579 10.5 5.25 10.5H11.25C11.6642 10.5 12 10.1642 12 9.75 12 9.33579 11.6642 9 11.25 9H5.25zM4.5 14.25C4.5 13.8358 4.83579 13.5 5.25 13.5H8.25C8.66421 13.5 9 13.8358 9 14.25 9 14.6642 8.66421 15 8.25 15H5.25C4.83579 15 4.5 14.6642 4.5 14.25zM5.25 18C4.83579 18 4.5 18.3358 4.5 18.75 4.5 19.1642 4.83579 19.5 5.25 19.5H8.25C8.66421 19.5 9 19.1642 9 18.75 9 18.3358 8.66421 18 8.25 18H5.25z"></path>
    <path fill-rule="evenodd" d="M10.9501 16.875C10.9501 13.7684 13.4685 11.25 16.575 11.25C19.6817 11.25 22.2 13.7684 22.2 16.875C22.2 18.2729 21.6901 19.5516 20.8462 20.5354L23.0304 22.7196C23.3232 23.0126 23.3232 23.4874 23.0304 23.7804C22.7374 24.0732 22.2626 24.0732 21.9696 23.7804L19.7251 21.5359C18.8264 22.1445 17.7422 22.5 16.575 22.5C13.4685 22.5 10.9501 19.9816 10.9501 16.875ZM16.575 12.75C14.2969 12.75 12.4501 14.5968 12.4501 16.875C12.4501 19.1532 14.2969 21 16.575 21C18.8532 21 20.7 19.1532 20.7 16.875C20.7 14.5968 18.8532 12.75 16.575 12.75Z" clip-rule="evenodd"></path>
  </symbol>

  <symbol xmlns="http://www.w3.org/2000/svg" aria-hidden="true" viewBox="0 0 24 24" id="fullscreen-off-line">
      <path d="M9.00391 7.00368C9.00391 8.10825 8.10848 9.00368 7.00391 9.00368H.75C.335786 9.00368 0 8.6679 0 8.25368 0 7.83947.335786 7.50368.75 7.50368H6.50391C7.05619 7.50368 7.50391 7.05597 7.50391 6.50368V.76123C7.50391.347017 7.83969.0112305 8.25391.0112305 8.66812.0112305 9.00391.347017 9.00391.76123V7.00368zM15 7.00368C15 8.10825 15.8954 9.00368 17 9.00368H23.2539C23.6681 9.00368 24.0039 8.6679 24.0039 8.25368 24.0039 7.83947 23.6681 7.50368 23.2539 7.50368H17.5C16.9477 7.50368 16.5 7.05597 16.5 6.50368V.757812C16.5.343599 16.1642.0078125 15.75.0078125 15.3358.0078125 15 .343599 15 .757812V7.00368zM9.00391 16.9998C9.00391 15.8952 8.10848 14.9998 7.00391 14.9998H.75C.335786 14.9998 0 15.3356 0 15.7498 0 16.164.335786 16.4998.75 16.4998H6.50391C7.05619 16.4998 7.50391 16.9475 7.50391 17.4998V23.2537C7.50391 23.6679 7.83969 24.0037 8.25391 24.0037 8.66812 24.0037 9.00391 23.6679 9.00391 23.2537V16.9998zM15 16.9998C15 15.8952 15.8954 14.9998 17 14.9998H23.2539C23.6681 14.9998 24.0039 15.3356 24.0039 15.7498 24.0039 16.164 23.6681 16.4998 23.2539 16.4998H17.5C16.9477 16.4998 16.5 16.9475 16.5 17.4998V23.2537C16.5 23.6679 16.1642 24.0037 15.75 24.0037 15.3358 24.0037 15 23.6679 15 23.2537V16.9998z"></path>
  </symbol>
  <symbol xmlns="http://www.w3.org/2000/svg" aria-hidden="true" viewBox="0 0 24 24" id="fullscreen-line">
      <path d="M0 2C0 .89543.89543 0 2 0H7.25391C7.66812 0 8.00391.335786 8.00391.75 8.00391 1.16421 7.66812 1.5 7.25391 1.5H2.5C1.94772 1.5 1.5 1.94772 1.5 2.5V7.25391C1.5 7.66812 1.16421 8.00391.75 8.00391.335786 8.00391 0 7.66812 0 7.25391V2zM24.0039 2C24.0039.89543 23.1085 0 22.0039 0H16.75C16.3358 0 16 .335786 16 .75 16 1.16421 16.3358 1.5 16.75 1.5H21.5039C22.0562 1.5 22.5039 1.94772 22.5039 2.5V7.25391C22.5039 7.66812 22.8397 8.00391 23.2539 8.00391 23.6681 8.00391 24.0039 7.66812 24.0039 7.25391V2zM0 22.0039C0 23.1085.89543 24.0039 2 24.0039H7.25391C7.66812 24.0039 8.00391 23.6681 8.00391 23.2539 8.00391 22.8397 7.66812 22.5039 7.25391 22.5039H2.5C1.94772 22.5039 1.5 22.0562 1.5 21.5039V16.75C1.5 16.3358 1.16421 16 .75 16 .335786 16 0 16.3358 0 16.75V22.0039zM24.0039 22.0039C24.0039 23.1085 23.1085 24.0039 22.0039 24.0039H16.75C16.3358 24.0039 16 23.6681 16 23.2539 16 22.8397 16.3358 22.5039 16.75 22.5039H21.5039C22.0562 22.5039 22.5039 22.0562 22.5039 21.5039V16.75C22.5039 16.3358 22.8397 16 23.2539 16 23.6681 16 24.0039 16.3358 24.0039 16.75V22.0039z"></path>
  </symbol>
    
  
  <symbol xmlns="http://www.w3.org/2000/svg" viewBox="0 0 24 24" id="globe-line">
    <path fill-rule="evenodd" d="M12 0a12 12 0 1 0 0 24 12 12 0 0 0 0-24ZM9.3 4.4C8.6 6.1 8.1 8.5 8 11.2h8a21 21 0 0 0-1.3-6.8c-.5-1-1-1.7-1.4-2.2-.5-.4-1-.6-1.3-.6-.4 0-.8.2-1.3.6-.5.5-1 1.2-1.4 2.2Zm-.6-2.3c-.3.5-.6 1-.8 1.7a21 21 0 0 0-1.5 7.4H1.6c.4-4.3 3.2-7.8 7.1-9Zm6.6 0a21 21 0 0 1 2.3 9h4.8c-.4-4.2-3.2-7.7-7.1-9Zm7 10.7h-4.7a21 21 0 0 1-1.5 7.4l-.8 1.7c3.9-1.3 6.7-4.8 7-9.1ZM12 22.4c.4 0 .8-.2 1.3-.6.5-.5 1-1.2 1.4-2.2.7-1.7 1.2-4.1 1.3-6.8H8c.1 2.7.6 5 1.3 6.8.5 1 1 1.7 1.4 2.2.5.4 1 .6 1.3.6Zm-3.3-.5c-.3-.5-.6-1-.8-1.7a21 21 0 0 1-1.5-7.4H1.6c.4 4.3 3.2 7.8 7.1 9Z" clip-rule="evenodd"/>
  </symbol>

  <symbol xmlns="http://www.w3.org/2000/svg" viewBox="0 0 24 24" id="heart-line">
    <path fill-rule="evenodd" d="M2 3.5a7 7 0 0 1 10 .2l.2-.2a7 7 0 0 1 9.8 0c2.7 2.6 2.7 7 0 9.6l-9.4 9.2a1 1 0 0 1-1.2 0L2 13a6.7 6.7 0 0 1 0-9.6Zm8.7 1c-2.1-2-5.5-2-7.6 0-2 2.1-2 5.4 0 7.5l8.9 8.7 8.9-8.7c2-2 2-5.4 0-7.5a5.4 5.4 0 0 0-8.2.7c-.3.5-1 .5-1.4 0l-.6-.7Z" clip-rule="evenodd"/>
  </symbol>
  <symbol xmlns="http://www.w3.org/2000/svg" viewBox="0 0 24 24" id="heart-solid">
    <path d="M22 3.5a6.8 6.8 0 0 0-9.5 0L12 4l-.5-.6A6.8 6.8 0 0 0 2 13l10 9.5L22 13a6.6 6.6 0 0 0 0-9.5Z"/>
  </symbol>

  <symbol xmlns="http://www.w3.org/2000/svg" viewBox="0 0 24 24" id="info-line">
    <path d="M12 9C11.1 9 10.5 8.4 10.5 7.5 10.5 6.6 11.1 6 12 6 12.9 6 13.5 6.6 13.5 7.5 13.5 8.4 12.9 9 12 9zM10.5 11C10.5 10.7239 10.7239 10.5 11 10.5H13C13.2761 10.5 13.5 10.7239 13.5 11V17.5C13.5 17.7761 13.2761 18 13 18H11C10.7239 18 10.5 17.7761 10.5 17.5V11z"></path>
    <path fill-rule="evenodd" d="M23 12C23 18.0751 18.0751 23 12 23C5.92487 23 1 18.0751 1 12C1 5.92487 5.92487 1 12 1C18.0751 1 23 5.92487 23 12ZM21.5 12C21.5 17.2467 17.2467 21.5 12 21.5C6.75329 21.5 2.5 17.2467 2.5 12C2.5 6.75329 6.75329 2.5 12 2.5C17.2467 2.5 21.5 6.75329 21.5 12Z" clip-rule="evenodd"></path>
  </symbol>

  <symbol xmlns="http://www.w3.org/2000/svg" viewBox="0 0 24 24" id="email-line">
    <path d="M1.5 5.25c0-.45.3-.75.75-.75h19.5c.45 0 .75.3.75.75v2.3L12 13.1 1.5 7.55v-2.3ZM0 8v10.75A2.3 2.3 0 0 0 2.25 21h19.5A2.3 2.3 0 0 0 24 18.75V5.25A2.3 2.3 0 0 0 21.75 3H2.25A2.3 2.3 0 0 0 0 5.25V8Zm22.5 1.2v9.55c0 .45-.3.75-.75.75H2.25c-.45 0-.75-.3-.75-.75V9.2l10.2 5.4c.15.15.45.15.75 0L22.5 9.2Z"/>
  </symbol>


  <symbol xmlns="http://www.w3.org/2000/svg" viewBox="0 0 24 24" id="pin-line">
    <path fill-rule="evenodd" d="M6.1 3.7A8.8 8.8 0 0 1 12 1.5a9 9 0 0 1 5.9 2.2A7.1 7.1 0 0 1 20.3 9c0 3.1-2.1 6.5-4.4 9.2a39.5 39.5 0 0 1-3.9 4 37.3 37.3 0 0 1-4-4c-2.2-2.7-4.3-6-4.3-9.2a7 7 0 0 1 2.4-5.3Zm5.3 20.1.6-.6-.6.6c.4.3.8.3 1.2 0l-.6-.6.6.6a23.2 23.2 0 0 0 1.4-1.3c1-.8 2-2 3.2-3.4C19.6 16.4 22 12.6 22 9c0-2.4-1-4.7-3-6.4A10.6 10.6 0 0 0 12 0C9.3 0 6.8 1 5 2.6 3 4.3 2 6.6 2 9c0 3.6 2.4 7.4 4.8 10.1a41 41 0 0 0 4.5 4.6h.1v.1ZM9 10c0-1.7 1.2-3 3-3s3 1.3 3 3-1.2 3-3 3-3-1.3-3-3Zm3-4.5c-2.8 0-4.5 2-4.5 4.5s1.7 4.5 4.5 4.5 4.5-2 4.5-4.5-1.7-4.5-4.5-4.5Z" clip-rule="evenodd"/>
  </symbol>
  <symbol xmlns="http://www.w3.org/2000/svg" viewBox="0 0 24 24" id="pin-solid">
    <path fill-rule="evenodd" d="M11.4 23.8c.4.3.8.3 1.2 0a23.2 23.2 0 0 0 1.4-1.3c1-.8 2-2 3.2-3.4C19.6 16.4 22 12.6 22 9c0-2.4-1-4.7-3-6.4A10.6 10.6 0 0 0 12 0C9.3 0 6.8 1 5 2.6 3 4.3 2 6.6 2 9c0 3.6 2.4 7.4 4.8 10.1a41 41 0 0 0 4.5 4.6h.1v.1ZM12 14a4 4 0 1 0 0-8 4 4 0 0 0 0 8Z" clip-rule="evenodd"/>
  </symbol>

  <symbol xmlns="http://www.w3.org/2000/svg" aria-hidden="true" viewBox="0 0 24 24" id="rocket-solid">
    <path fill-rule="evenodd" d="M24.0002 0C19.5065 0.299584 15.7617 1.64771 12.9156 3.59501C9.76998 2.09709 6.02518 2.69625 3.47871 5.39251C3.02934 5.84189 2.57996 6.44105 2.13059 7.04022L5.87539 10.785C4.82684 12.5825 4.22767 13.7809 4.22767 13.7809L10.3691 19.9223C10.3691 19.9223 11.5675 19.473 13.365 18.2746L17.1098 22.0194C17.709 21.7198 18.3081 21.2705 18.7575 20.6713C21.304 18.1248 21.9031 14.2302 20.555 11.0846C22.3525 8.08877 23.7006 4.49376 24.0002 0ZM17.0101 8.98752C17.0101 10.0906 16.1159 10.9847 15.0128 10.9847C13.9098 10.9847 13.0156 10.0906 13.0156 8.98752C13.0156 7.88448 13.9098 6.99029 15.0128 6.99029C16.1159 6.99029 17.0101 7.88448 17.0101 8.98752Z" clip-rule="evenodd"></path>
    <path d="M5.12621 18.8738C3.92788 17.6755 2.13037 17.6755 0.932039 18.8738C-0.266297 19.9223 0.0332871 23.9667 0.0332871 23.9667C0.0332871 23.9667 3.92788 24.2663 5.12621 23.068C6.32455 21.8696 6.32455 20.0721 5.12621 18.8738Z"></path>
  </symbol>

  <symbol xmlns="http://www.w3.org/2000/svg" aria-hidden="true" viewBox="0 0 24 24" id="sort-line">
    <path d="M12.6251 2.21889L17.6251 6.21889C17.8322 6.38465 17.965 6.6259 17.9942 6.88958 18.0235 7.15325 17.9468 7.41775 17.7811 7.62489 17.6153 7.83202 17.374 7.96482 17.1104 7.99408 16.8467 8.02333 16.5822 7.94665 16.3751 7.78089L12.0001 4.28089 7.62505 7.78089C7.41792 7.94665 7.15342 8.02333 6.88974 7.99408 6.62607 7.96482 6.38481 7.83202 6.21905 7.62489 6.05329 7.41775 5.9766 7.15325 6.00586 6.88958 6.03512 6.6259 6.16792 6.38465 6.37505 6.21889L11.3751 2.21889C11.5524 2.07688 11.7728 1.99951 12.0001 1.99951 12.2273 1.99951 12.4477 2.07688 12.6251 2.21889zM12 19.7188L16.375 16.2188C16.5822 16.053 16.8467 15.9764 17.1104 16.0056 17.2409 16.0201 17.3673 16.0602 17.4824 16.1235 17.5975 16.1869 17.699 16.2722 17.781 16.3748 17.9468 16.5819 18.0235 16.8464 17.9942 17.1101 17.965 17.3738 17.8322 17.615 17.625 17.7808L12.625 21.7808C12.4477 21.9228 12.2273 22.0002 12 22.0002 11.7728 22.0002 11.5524 21.9228 11.375 21.7808L6.37505 17.7808C6.27249 17.6987 6.18709 17.5973 6.12375 17.4822 6.0604 17.3671 6.02034 17.2407 6.00586 17.1101 5.99137 16.9796 6.00274 16.8474 6.03932 16.7213 6.0759 16.5951 6.13697 16.4774 6.21905 16.3748 6.30113 16.2722 6.4026 16.1869 6.51768 16.1235 6.63275 16.0602 6.75918 16.0201 6.88974 16.0056 7.0203 15.9911 7.15243 16.0025 7.2786 16.0391 7.40476 16.0757 7.52249 16.1367 7.62505 16.2188L12 19.7188z"></path>
  </symbol>
  <symbol xmlns="http://www.w3.org/2000/svg" aria-hidden="true" viewBox="0 0 24 24" id="sort-desc-line">
    <path d="M12 19.7188L16.375 16.2188C16.5822 16.053 16.8467 15.9764 17.1104 16.0056C17.2409 16.0201 17.3673 16.0602 17.4824 16.1235C17.5975 16.1869 17.699 16.2722 17.781 16.3748C17.9468 16.5819 18.0235 16.8464 17.9942 17.1101C17.965 17.3738 17.8322 17.615 17.625 17.7808L12.625 21.7808C12.4477 21.9228 12.2273 22.0002 12 22.0002C11.7728 22.0002 11.5524 21.9228 11.375 21.7808L6.37505 17.7808C6.27249 17.6987 6.18709 17.5973 6.12375 17.4822C6.0604 17.3671 6.02034 17.2407 6.00586 17.1101C5.99137 16.9796 6.00274 16.8474 6.03932 16.7213C6.0759 16.5951 6.13697 16.4774 6.21905 16.3748C6.30113 16.2722 6.4026 16.1869 6.51768 16.1235C6.63275 16.0602 6.75918 16.0201 6.88974 16.0056C7.0203 15.9911 7.15243 16.0025 7.2786 16.0391C7.40476 16.0757 7.52249 16.1367 7.62505 16.2188L12 19.7188Z"></path>
  </symbol>
  <symbol xmlns="http://www.w3.org/2000/svg" aria-hidden="true" viewBox="0 0 24 24" id="sort-asc-line">
    <path d="M12.6251 2.21889L17.6251 6.21889C17.8322 6.38465 17.965 6.6259 17.9942 6.88958C18.0235 7.15325 17.9468 7.41775 17.7811 7.62489C17.6153 7.83202 17.374 7.96482 17.1104 7.99408C16.8467 8.02333 16.5822 7.94665 16.3751 7.78089L12.0001 4.28089L7.62505 7.78089C7.41792 7.94665 7.15342 8.02333 6.88974 7.99408C6.62607 7.96482 6.38481 7.83202 6.21905 7.62489C6.05329 7.41775 5.9766 7.15325 6.00586 6.88958C6.03512 6.6259 6.16792 6.38465 6.37505 6.21889L11.3751 2.21889C11.5524 2.07688 11.7728 1.99951 12.0001 1.99951C12.2273 1.99951 12.4477 2.07688 12.6251 2.21889Z"></path>
  </symbol>

  <symbol xmlns="http://www.w3.org/2000/svg" viewBox="0 0 24 24" id="buymeacoffee">
    <path d="m20.22 6.42-.14-.67c-.11-.6-.38-1.16-1-1.38-.2-.07-.42-.1-.57-.24-.15-.14-.2-.37-.23-.57l-.19-1.14c-.06-.32-.1-.69-.25-.98-.2-.4-.6-.64-1-.8a5.72 5.72 0 0 0-.62-.19c-1-.26-2.05-.36-3.08-.41a25.83 25.83 0 0 0-3.7.06C8.53.18 7.56.28 6.7.6c-.32.12-.65.26-.89.5-.3.3-.39.77-.17 1.15.15.26.41.45.69.58.36.16.73.28 1.12.36a25 25 0 0 0 7.83.13c.36-.05.58-.5.48-.83-.13-.38-.46-.53-.84-.47-.46.07-.96.1-1.38.15-1.18.08-2.36.08-3.53 0a22.23 22.23 0 0 1-1.16-.1l-.26-.04a12.6 12.6 0 0 1-.72-.13c-.11-.03-.11-.19 0-.21l.84-.15c.13 0 .27-.03.4-.05a25.08 25.08 0 0 1 3.42-.12c.68.02 1.35.07 2.02.15l.23.03c.26.04.53.08.8.14.39.09.89.11 1.06.54.06.14.08.3.12.43l.31 1.49a.24.24 0 0 1-.2.28l-.1.02a36.7 36.7 0 0 1-4.75.3 37.06 37.06 0 0 1-4.7-.31l-.42-.06-.97-.16a1.7 1.7 0 0 0-1.12.16c-.3.16-.53.4-.68.7-.15.32-.2.66-.27 1-.07.34-.17.7-.13 1.06.09.75.61 1.36 1.37 1.5A39.69 39.69 0 0 0 16.43 9a.48.48 0 0 1 .54.53l-.07.7-1.02 9.9c-.04.42-.05.84-.13 1.24-.12.64-.55 1.03-1.18 1.18-.58.13-1.16.2-1.76.2l-1.96-.02c-.7 0-1.56-.06-2.1-.58-.47-.46-.54-1.18-.6-1.8l-.73-7-.32-3.1c-.04-.35-.29-.7-.68-.68-.34.02-.72.3-.68.68l.23 2.19.95 9.1c.14 1.35 1.17 2.08 2.44 2.28.74.12 1.5.14 2.26.16.97.01 1.94.05 2.9-.13 1.4-.25 2.46-1.2 2.6-2.65.35-3.34.7-6.67 1.03-10l.22-2.09a.48.48 0 0 1 .39-.42c.4-.08.78-.21 1.07-.52.46-.49.55-1.12.39-1.77zm-1.48.77c-.15.13-.36.2-.58.23-2.42.36-4.87.54-7.3.46a49.37 49.37 0 0 1-5.21-.5c-.17-.02-.36-.05-.47-.18-.22-.23-.12-.7-.06-1 .05-.25.15-.6.46-.64.49-.06 1.05.15 1.53.22a33.58 33.58 0 0 0 10.55-.14c.4-.07.84-.2 1.08.2.17.29.2.67.17.98a.54.54 0 0 1-.17.37zm-6.16 3.9c-.86.37-1.84.78-3.11.78a5.88 5.88 0 0 1-1.57-.21l.88 9a1.5 1.5 0 0 0 1.5 1.38s1.24.07 1.66.07c.44 0 1.78-.07 1.78-.07.78 0 1.44-.6 1.5-1.38l.94-9.95a4 4 0 0 0-1.32-.24c-.83 0-1.5.29-2.26.62z"/>
  </symbol>
  <symbol xmlns="http://www.w3.org/2000/svg" viewBox="0 0 16 16" id="instagram">
    <path d="M11 0H5a5 5 0 0 0-5 5v6a5 5 0 0 0 5 5h6a5 5 0 0 0 5-5V5a5 5 0 0 0-5-5Zm3.5 11c0 2-1.6 3.5-3.5 3.5H5c-2 0-3.5-1.6-3.5-3.5V5c0-2 1.6-3.5 3.5-3.5h6c2 0 3.5 1.6 3.5 3.5v6Z"/>
    <path d="M8 4a4 4 0 1 0 0 8 4 4 0 0 0 0-8Zm0 6.5a2.5 2.5 0 1 1 0-5 2.5 2.5 0 0 1 0 5Zm4.3-6.3a.5.5 0 1 0 0-1 .5.5 0 0 0 0 1Z"/>
  </symbol>
  <symbol xmlns="http://www.w3.org/2000/svg" viewBox="0 0 30 36" id="pin">
    <path d="M15 3.75A11.08 11.08 0 0 0 3.92 14.83c0 4.53 2.82 8.9 5.92 12.3A41.16 41.16 0 0 0 15 31.86a40.42 40.42 0 0 0 5.16-4.74c3.1-3.4 5.92-7.76 5.92-12.3A11.08 11.08 0 0 0 15 3.75Zm0 32-.9-.61-.01-.01-.03-.03-.12-.08-.43-.31a44.33 44.33 0 0 1-6.01-5.45C4.26 25.72.75 20.6.75 14.83a14.25 14.25 0 0 1 28.5 0c0 5.76-3.51 10.89-6.75 14.43a44.33 44.33 0 0 1-6.55 5.84l-.04.03h-.01l-.9.63Zm0-24.08A3.17 3.17 0 1 0 15 18a3.17 3.17 0 0 0 0-6.33Zm-6.33 3.16a6.33 6.33 0 1 1 12.66 0 6.33 6.33 0 0 1-12.66 0Z"/>
  </symbol>
  <symbol xmlns="http://www.w3.org/2000/svg" viewBox="0 0 24 24" id="share-solid">
    <path d="M18 9a4.5 4.5 0 1 0-4.4-3.5l-4.8 3C8 7.9 7 7.5 6 7.5a4.5 4.5 0 0 0 0 9c1 0 2-.4 2.8-1l4.8 3-.1 1A4.5 4.5 0 1 0 18 15c-1 0-2 .4-2.8 1l-4.8-3a4.5 4.5 0 0 0 0-2l4.8-3c.8.6 1.7 1 2.8 1Z"/>
  </symbol>
  <symbol xmlns="http://www.w3.org/2000/svg" viewBox="0 0 36 36" id="life-vest">
    <path d="m9.1 6.87 4.53 4.52a7.93 7.93 0 0 1 8.74 0l4.53-4.52a14.26 14.26 0 0 0-17.8 0ZM29.13 9.1l-4.52 4.53a7.93 7.93 0 0 1 0 8.74l4.52 4.53a14.26 14.26 0 0 0 0-17.8ZM26.9 29.13l-4.53-4.52a7.93 7.93 0 0 1-8.74 0L9.1 29.13a14.26 14.26 0 0 0 17.8 0ZM6.87 26.9l4.52-4.53a7.93 7.93 0 0 1 0-8.74L6.87 9.1a14.26 14.26 0 0 0 0 17.8ZM5.68 5.68a17.42 17.42 0 1 1 24.64 24.63A17.42 17.42 0 0 1 5.68 5.68Zm15.68 8.96a4.75 4.75 0 1 0-6.72 6.72 4.75 4.75 0 0 0 6.72-6.72"/>
  </symbol>
  <symbol xmlns="http://www.w3.org/2000/svg" viewBox="0 0 38 38" id="chart">
    <path d="M28 3.8c-.53 0-1.04-.2-1.41-.56A1.85 1.85 0 0 1 26 1.9c0-.5.21-.99.59-1.34C26.96.2 27.47 0 28 0h8c.53 0 1.04.2 1.41.56.38.35.59.84.59 1.34v7.6c0 .5-.21.99-.59 1.34a2.05 2.05 0 0 1-2.83 0A1.85 1.85 0 0 1 34 9.5V6.49l-11.59 11a2.05 2.05 0 0 1-2.83 0L14 12.2 3.41 22.24a2.06 2.06 0 0 1-2.8-.02 1.85 1.85 0 0 1-.59-1.33c0-.5.2-.98.57-1.33l12-11.4a2.05 2.05 0 0 1 2.83 0l5.58 5.3L31.17 3.8H28ZM4 30.4v5.7c0 .5-.21.99-.59 1.34a2.05 2.05 0 0 1-2.83 0A1.85 1.85 0 0 1 0 36.1v-5.7c0-.5.21-.99.59-1.34a2.05 2.05 0 0 1 2.83 0c.37.35.58.84.58 1.34Zm10-7.6c0-.5-.21-.99-.59-1.34A2.05 2.05 0 0 0 12 20.9c-.53 0-1.04.2-1.41.56-.38.35-.59.84-.59 1.34v13.3c0 .5.21.99.59 1.34a2.05 2.05 0 0 0 2.83 0c.37-.35.58-.84.58-1.34V22.8Zm8 1.9c.53 0 1.04.2 1.41.56.38.35.59.84.59 1.34v9.5c0 .5-.21.99-.59 1.34a2.05 2.05 0 0 1-2.83 0A1.85 1.85 0 0 1 20 36.1v-9.5c0-.5.21-.99.59-1.34.37-.36.88-.56 1.41-.56Zm12-7.6c0-.5-.21-.99-.59-1.34A2.05 2.05 0 0 0 32 15.2c-.53 0-1.04.2-1.41.56-.38.35-.59.84-.59 1.34v19c0 .5.21.99.59 1.34a2.05 2.05 0 0 0 2.83 0c.37-.35.58-.84.58-1.34v-19Z"/>
  </symbol>
    
  <symbol xmlns="http://www.w3.org/2000/svg" viewBox="0 0 1080 1080" id="patreon">
    <path d="M1033 324c0-137-108-250-234-291a746 746 0 0 0-512 27C106 145 49 333 47 519c-2 154 14 558 242 561 169 2 194-216 273-321 56-75 127-96 216-118a320 320 0 0 0 255-317z"/>
  </symbol>
  <symbol xmlns="http://www.w3.org/2000/svg" viewBox="0 0 16 16" id="telegram">
    <path d="M6.3 10.1 6 13.8c.4 0 .6-.1.8-.3l1.7-1.7 3.7 2.7c.7.4 1.2.2 1.3-.6L16 2.5c.2-1-.4-1.3-1-1.1L.6 6.8c-1 .4-1 1-.1 1.2l3.6 1.1L12.6 4c.4-.3.8-.2.5.1l-6.8 6.1Z"/>
  </symbol>
  <symbol xmlns="http://www.w3.org/2000/svg" viewBox="0 0 20 14" id="youtube">
    <path d="M19.6 2.2c-.2-.9-1-1.5-1.8-1.8C16.3 0 10 0 10 0S3.7 0 2.2.4C1.3.6.6 1.4.4 2.2 0 3.8 0 7 0 7s0 3.3.4 4.8c.2.9 1 1.5 1.8 1.8 1.6.4 7.8.4 7.8.4s6.3 0 7.8-.4c.9-.2 1.6-1 1.8-1.8.4-1.5.4-4.8.4-4.8s0-3.2-.4-4.8Z"/>
    <path fill="currentColor" d="M13.2 7 8 4v6l5.2-3Z" />
  </symbol>
</svg>



