<svg width="0" height="0" style="display: none" >
  <symbol xmlns="http://www.w3.org/2000/svg" aria-hidden="true" viewBox="0 0 24 24" id="arrow-left-line">
    <path d="M7.78032 7.03033C8.07323 6.73744 8.07323 6.26257 7.78032 5.96968C7.48743 5.67677 7.01257 5.67677 6.71968 5.96968L1.21967 11.4697C0.926777 11.7626 0.926777 12.2374 1.21967 12.5303L6.71968 18.0304C7.01257 18.3232 7.48743 18.3232 7.78032 18.0304C8.07323 17.7375 8.07323 17.2626 7.78032 16.9696L3.56066 12.75H22.25C22.6642 12.75 23 12.4142 23 12C23 11.5858 22.6642 11.25 22.25 11.25H3.56066L7.78032 7.03033Z"></path>
  </symbol>
  <symbol xmlns="http://www.w3.org/2000/svg" viewBox="0 0 24 24" id="chevron-down-line">
    <path fill-rule="evenodd" d="M3.12604 9.33405C3.35581 8.98941 3.82146 8.89628 4.1661 9.12604L12.0001 14.3487L19.8341 9.12604C20.1787 8.89628 20.6444 8.98941 20.8741 9.33405C21.1039 9.6787 21.0108 10.1444 20.6661 10.3741L12.4161 15.8741C12.1642 16.0421 11.836 16.0421 11.5841 15.8741L3.33405 10.3741C2.98941 10.1444 2.89628 9.6787 3.12604 9.33405Z" clip-rule="evenodd"></path>
  </symbol>

  <symbol xmlns="http://www.w3.org/2000/svg" viewBox="0 0 24 24" id="call-line">
    <path fill-rule="evenodd" d="M4.3 0h.6c1 0 2 .5 2.4 1.2 1.2 1.6 2.8 3.8 2.8 5.3.1 1.5-.6 2.5-1.2 3.2.3.8 1 1.8 2.3 3.1a11.8 11.8 0 0 0 3 2.4 4 4 0 0 1 2.2-1.2h.8c1.7 0 3.3.8 5.8 2.8.9.7 1.2 1.9.9 3.2-.5 1.8-2 3.7-4.5 4h-.6c-3.3 0-8.4-2.8-12-6.5-3.7-4-6-7.7-6.6-11.2-.7-3.1.8-5.5 4-6.3ZM6 2.2c-.2-.2-.6-.5-1-.5h-.5c-.8.2-3.4 1-2.6 4.3.6 3.7 3.2 7.2 6.3 10.3 3.4 3.5 8 6 10.7 6h.5c2.6-.5 3.6-3.5 2.8-4.1-2.4-1.9-3.6-2.5-4.8-2.5h-.5c-1.4.1-1.9 1.5-1.9 1.5s-2.4-.5-5-3.2c-2.8-2.8-3.2-4.8-3.2-4.8 1-.7 1.5-1.4 1.5-2.5 0-1.2-1.8-3.9-2.3-4.5Z" clip-rule="evenodd"/>
  </symbol>

  <symbol xmlns="http://www.w3.org/2000/svg" viewBox="0 0 24 24" id="close-line">
    <path d="M20.7803 4.28033C21.0732 3.98744 21.0732 3.51256 20.7803 3.21967C20.4874 2.92678 20.0126 2.92678 19.7197 3.21967L12 10.9393L4.28033 3.21967C3.98744 2.92678 3.51256 2.92678 3.21967 3.21967C2.92678 3.51256 2.92678 3.98744 3.21967 4.28033L10.9393 12L3.21967 19.7197C2.92678 20.0126 2.92678 20.4874 3.21967 20.7803C3.51256 21.0732 3.98744 21.0732 4.28033 20.7803L12 13.0607L19.7197 20.7803C20.0126 21.0732 20.4874 21.0732 20.7803 20.7803C21.0732 20.4874 21.0732 20.0126 20.7803 19.7197L13.0607 12L20.7803 4.28033Z"></path>
  </symbol>
  <symbol xmlns="http://www.w3.org/2000/svg" viewBox="0 0 24 24" id="close-small-solid">
    <path d="M18 8a1.5 1.5 0 0 0-2-2l-4 3.9-4-4a1.5 1.5 0 1 0-2 2.2L9.8 12l-4 4A1.5 1.5 0 0 0 8 18l3.9-3.9 4 4a1.5 1.5 0 0 0 2-2.2L14.2 12l4-4Z"/>
  </symbol>

  <symbol xmlns="http://www.w3.org/2000/svg" aria-hidden="true" viewBox="0 0 24 24" id="file-search-line">
    <path d="M0 .75C0 .335787.335787 0 .75 0H20.25C20.6642 0 21 .335787 21 .75V8.25C21 8.66421 20.6642 9 20.25 9 19.8358 9 19.5 8.66421 19.5 8.25V1.5H1.5V22.5H9.75C10.1642 22.5 10.5 22.8358 10.5 23.25 10.5 23.6642 10.1642 24 9.75 24H.75C.335787 24 0 23.6642 0 23.25V.75zM4.5 5.25C4.5 4.83579 4.83579 4.5 5.25 4.5H15.75C16.1642 4.5 16.5 4.83579 16.5 5.25 16.5 5.66421 16.1642 6 15.75 6H5.25C4.83579 6 4.5 5.66421 4.5 5.25zM5.25 9C4.83579 9 4.5 9.33579 4.5 9.75 4.5 10.1642 4.83579 10.5 5.25 10.5H11.25C11.6642 10.5 12 10.1642 12 9.75 12 9.33579 11.6642 9 11.25 9H5.25zM4.5 14.25C4.5 13.8358 4.83579 13.5 5.25 13.5H8.25C8.66421 13.5 9 13.8358 9 14.25 9 14.6642 8.66421 15 8.25 15H5.25C4.83579 15 4.5 14.6642 4.5 14.25zM5.25 18C4.83579 18 4.5 18.3358 4.5 18.75 4.5 19.1642 4.83579 19.5 5.25 19.5H8.25C8.66421 19.5 9 19.1642 9 18.75 9 18.3358 8.66421 18 8.25 18H5.25z"></path>
    <path fill-rule="evenodd" d="M10.9501 16.875C10.9501 13.7684 13.4685 11.25 16.575 11.25C19.6817 11.25 22.2 13.7684 22.2 16.875C22.2 18.2729 21.6901 19.5516 20.8462 20.5354L23.0304 22.7196C23.3232 23.0126 23.3232 23.4874 23.0304 23.7804C22.7374 24.0732 22.2626 24.0732 21.9696 23.7804L19.7251 21.5359C18.8264 22.1445 17.7422 22.5 16.575 22.5C13.4685 22.5 10.9501 19.9816 10.9501 16.875ZM16.575 12.75C14.2969 12.75 12.4501 14.5968 12.4501 16.875C12.4501 19.1532 14.2969 21 16.575 21C18.8532 21 20.7 19.1532 20.7 16.875C20.7 14.5968 18.8532 12.75 16.575 12.75Z" clip-rule="evenodd"></path>
  </symbol>

  <symbol xmlns="http://www.w3.org/2000/svg" aria-hidden="true" viewBox="0 0 24 24" id="fullscreen-off-line">
      <path d="M9.00391 7.00368C9.00391 8.10825 8.10848 9.00368 7.00391 9.00368H.75C.335786 9.00368 0 8.6679 0 8.25368 0 7.83947.335786 7.50368.75 7.50368H6.50391C7.05619 7.50368 7.50391 7.05597 7.50391 6.50368V.76123C7.50391.347017 7.83969.0112305 8.25391.0112305 8.66812.0112305 9.00391.347017 9.00391.76123V7.00368zM15 7.00368C15 8.10825 15.8954 9.00368 17 9.00368H23.2539C23.6681 9.00368 24.0039 8.6679 24.0039 8.25368 24.0039 7.83947 23.6681 7.50368 23.2539 7.50368H17.5C16.9477 7.50368 16.5 7.05597 16.5 6.50368V.757812C16.5.343599 16.1642.0078125 15.75.0078125 15.3358.0078125 15 .343599 15 .757812V7.00368zM9.00391 16.9998C9.00391 15.8952 8.10848 14.9998 7.00391 14.9998H.75C.335786 14.9998 0 15.3356 0 15.7498 0 16.164.335786 16.4998.75 16.4998H6.50391C7.05619 16.4998 7.50391 16.9475 7.50391 17.4998V23.2537C7.50391 23.6679 7.83969 24.0037 8.25391 24.0037 8.66812 24.0037 9.00391 23.6679 9.00391 23.2537V16.9998zM15 16.9998C15 15.8952 15.8954 14.9998 17 14.9998H23.2539C23.6681 14.9998 24.0039 15.3356 24.0039 15.7498 24.0039 16.164 23.6681 16.4998 23.2539 16.4998H17.5C16.9477 16.4998 16.5 16.9475 16.5 17.4998V23.2537C16.5 23.6679 16.1642 24.0037 15.75 24.0037 15.3358 24.0037 15 23.6679 15 23.2537V16.9998z"></path>
  </symbol>
  <symbol xmlns="http://www.w3.org/2000/svg" aria-hidden="true" viewBox="0 0 24 24" id="fullscreen-line">
      <path d="M0 2C0 .89543.89543 0 2 0H7.25391C7.66812 0 8.00391.335786 8.00391.75 8.00391 1.16421 7.66812 1.5 7.25391 1.5H2.5C1.94772 1.5 1.5 1.94772 1.5 2.5V7.25391C1.5 7.66812 1.16421 8.00391.75 8.00391.335786 8.00391 0 7.66812 0 7.25391V2zM24.0039 2C24.0039.89543 23.1085 0 22.0039 0H16.75C16.3358 0 16 .335786 16 .75 16 1.16421 16.3358 1.5 16.75 1.5H21.5039C22.0562 1.5 22.5039 1.94772 22.5039 2.5V7.25391C22.5039 7.66812 22.8397 8.00391 23.2539 8.00391 23.6681 8.00391 24.0039 7.66812 24.0039 7.25391V2zM0 22.0039C0 23.1085.89543 24.0039 2 24.0039H7.25391C7.66812 24.0039 8.00391 23.6681 8.00391 23.2539 8.00391 22.8397 7.66812 22.5039 7.25391 22.5039H2.5C1.94772 22.5039 1.5 22.0562 1.5 21.5039V16.75C1.5 16.3358 1.16421 16 .75 16 .335786 16 0 16.3358 0 16.75V22.0039zM24.0039 22.0039C24.0039 23.1085 23.1085 24.0039 22.0039 24.0039H16.75C16.3358 24.0039 16 23.6681 16 23.2539 16 22.8397 16.3358 22.5039 16.75 22.5039H21.5039C22.0562 22.5039 22.5039 22.0562 22.5039 21.5039V16.75C22.5039 16.3358 22.8397 16 23.2539 16 23.6681 16 24.0039 16.3358 24.0039 16.75V22.0039z"></path>
  </symbol>
    
  
  <symbol xmlns="http://www.w3.org/2000/svg" viewBox="0 0 24 24" id="globe-line">
    <path fill-rule="evenodd" d="M12 0a12 12 0 1 0 0 24 12 12 0 0 0 0-24ZM9.3 4.4C8.6 6.1 8.1 8.5 8 11.2h8a21 21 0 0 0-1.3-6.8c-.5-1-1-1.7-1.4-2.2-.5-.4-1-.6-1.3-.6-.4 0-.8.2-1.3.6-.5.5-1 1.2-1.4 2.2Zm-.6-2.3c-.3.5-.6 1-.8 1.7a21 21 0 0 0-1.5 7.4H1.6c.4-4.3 3.2-7.8 7.1-9Zm6.6 0a21 21 0 0 1 2.3 9h4.8c-.4-4.2-3.2-7.7-7.1-9Zm7 10.7h-4.7a21 21 0 0 1-1.5 7.4l-.8 1.7c3.9-1.3 6.7-4.8 7-9.1ZM12 22.4c.4 0 .8-.2 1.3-.6.5-.5 1-1.2 1.4-2.2.7-1.7 1.2-4.1 1.3-6.8H8c.1 2.7.6 5 1.3 6.8.5 1 1 1.7 1.4 2.2.5.4 1 .6 1.3.6Zm-3.3-.5c-.3-.5-.6-1-.8-1.7a21 21 0 0 1-1.5-7.4H1.6c.4 4.3 3.2 7.8 7.1 9Z" clip-rule="evenodd"/>
  </symbol>

  <symbol xmlns="http://www.w3.org/2000/svg" viewBox="0 0 24 24" id="heart-line">
    <path fill-rule="evenodd" d="M2 3.5a7 7 0 0 1 10 .2l.2-.2a7 7 0 0 1 9.8 0c2.7 2.6 2.7 7 0 9.6l-9.4 9.2a1 1 0 0 1-1.2 0L2 13a6.7 6.7 0 0 1 0-9.6Zm8.7 1c-2.1-2-5.5-2-7.6 0-2 2.1-2 5.4 0 7.5l8.9 8.7 8.9-8.7c2-2 2-5.4 0-7.5a5.4 5.4 0 0 0-8.2.7c-.3.5-1 .5-1.4 0l-.6-.7Z" clip-rule="evenodd"/>
  </symbol>
  <symbol xmlns="http://www.w3.org/2000/svg" viewBox="0 0 24 24" id="heart-solid">
    <path d="M22 3.5a6.8 6.8 0 0 0-9.5 0L12 4l-.5-.6A6.8 6.8 0 0 0 2 13l10 9.5L22 13a6.6 6.6 0 0 0 0-9.5Z"/>
  </symbol>

  <symbol xmlns="http://www.w3.org/2000/svg" viewBox="0 0 24 24" id="info-line">
    <path d="M12 9C11.1 9 10.5 8.4 10.5 7.5 10.5 6.6 11.1 6 12 6 12.9 6 13.5 6.6 13.5 7.5 13.5 8.4 12.9 9 12 9zM10.5 11C10.5 10.7239 10.7239 10.5 11 10.5H13C13.2761 10.5 13.5 10.7239 13.5 11V17.5C13.5 17.7761 13.2761 18 13 18H11C10.7239 18 10.5 17.7761 10.5 17.5V11z"></path>
    <path fill-rule="evenodd" d="M23 12C23 18.0751 18.0751 23 12 23C5.92487 23 1 18.0751 1 12C1 5.92487 5.92487 1 12 1C18.0751 1 23 5.92487 23 12ZM21.5 12C21.5 17.2467 17.2467 21.5 12 21.5C6.75329 21.5 2.5 17.2467 2.5 12C2.5 6.75329 6.75329 2.5 12 2.5C17.2467 2.5 21.5 6.75329 21.5 12Z" clip-rule="evenodd"></path>
  </symbol>

  <symbol xmlns="http://www.w3.org/2000/svg" viewBox="0 0 24 24" id="email-line">
    <path d="M1.5 5.25c0-.45.3-.75.75-.75h19.5c.45 0 .75.3.75.75v2.3L12 13.1 1.5 7.55v-2.3ZM0 8v10.75A2.3 2.3 0 0 0 2.25 21h19.5A2.3 2.3 0 0 0 24 18.75V5.25A2.3 2.3 0 0 0 21.75 3H2.25A2.3 2.3 0 0 0 0 5.25V8Zm22.5 1.2v9.55c0 .45-.3.75-.75.75H2.25c-.45 0-.75-.3-.75-.75V9.2l10.2 5.4c.15.15.45.15.75 0L22.5 9.2Z"/>
  </symbol>


  <symbol xmlns="http://www.w3.org/2000/svg" viewBox="0 0 24 24" id="pin-line">
    <path fill-rule="evenodd" d="M6.1 3.7A8.8 8.8 0 0 1 12 1.5a9 9 0 0 1 5.9 2.2A7.1 7.1 0 0 1 20.3 9c0 3.1-2.1 6.5-4.4 9.2a39.5 39.5 0 0 1-3.9 4 37.3 37.3 0 0 1-4-4c-2.2-2.7-4.3-6-4.3-9.2a7 7 0 0 1 2.4-5.3Zm5.3 20.1.6-.6-.6.6c.4.3.8.3 1.2 0l-.6-.6.6.6a23.2 23.2 0 0 0 1.4-1.3c1-.8 2-2 3.2-3.4C19.6 16.4 22 12.6 22 9c0-2.4-1-4.7-3-6.4A10.6 10.6 0 0 0 12 0C9.3 0 6.8 1 5 2.6 3 4.3 2 6.6 2 9c0 3.6 2.4 7.4 4.8 10.1a41 41 0 0 0 4.5 4.6h.1v.1ZM9 10c0-1.7 1.2-3 3-3s3 1.3 3 3-1.2 3-3 3-3-1.3-3-3Zm3-4.5c-2.8 0-4.5 2-4.5 4.5s1.7 4.5 4.5 4.5 4.5-2 4.5-4.5-1.7-4.5-4.5-4.5Z" clip-rule="evenodd"/>
  </symbol>
  <symbol xmlns="http://www.w3.org/2000/svg" viewBox="0 0 24 24" id="pin-solid">
    <path fill-rule="evenodd" d="M11.4 23.8c.4.3.8.3 1.2 0a23.2 23.2 0 0 0 1.4-1.3c1-.8 2-2 3.2-3.4C19.6 16.4 22 12.6 22 9c0-2.4-1-4.7-3-6.4A10.6 10.6 0 0 0 12 0C9.3 0 6.8 1 5 2.6 3 4.3 2 6.6 2 9c0 3.6 2.4 7.4 4.8 10.1a41 41 0 0 0 4.5 4.6h.1v.1ZM12 14a4 4 0 1 0 0-8 4 4 0 0 0 0 8Z" clip-rule="evenodd"/>
  </symbol>

  <symbol xmlns="http://www.w3.org/2000/svg" aria-hidden="true" viewBox="0 0 24 24" id="rocket-solid">
    <path fill-rule="evenodd" d="M24.0002 0C19.5065 0.299584 15.7617 1.64771 12.9156 3.59501C9.76998 2.09709 6.02518 2.69625 3.47871 5.39251C3.02934 5.84189 2.57996 6.44105 2.13059 7.04022L5.87539 10.785C4.82684 12.5825 4.22767 13.7809 4.22767 13.7809L10.3691 19.9223C10.3691 19.9223 11.5675 19.473 13.365 18.2746L17.1098 22.0194C17.709 21.7198 18.3081 21.2705 18.7575 20.6713C21.304 18.1248 21.9031 14.2302 20.555 11.0846C22.3525 8.08877 23.7006 4.49376 24.0002 0ZM17.0101 8.98752C17.0101 10.0906 16.1159 10.9847 15.0128 10.9847C13.9098 10.9847 13.0156 10.0906 13.0156 8.98752C13.0156 7.88448 13.9098 6.99029 15.0128 6.99029C16.1159 6.99029 17.0101 7.88448 17.0101 8.98752Z" clip-rule="evenodd"></path>
    <path d="M5.12621 18.8738C3.92788 17.6755 2.13037 17.6755 0.932039 18.8738C-0.266297 19.9223 0.0332871 23.9667 0.0332871 23.9667C0.0332871 23.9667 3.92788 24.2663 5.12621 23.068C6.32455 21.8696 6.32455 20.0721 5.12621 18.8738Z"></path>
  </symbol>

  <symbol xmlns="http://www.w3.org/2000/svg" aria-hidden="true" viewBox="0 0 24 24" id="sort-line">
    <path d="M12.6251 2.21889L17.6251 6.21889C17.8322 6.38465 17.965 6.6259 17.9942 6.88958 18.0235 7.15325 17.9468 7.41775 17.7811 7.62489 17.6153 7.83202 17.374 7.96482 17.1104 7.99408 16.8467 8.02333 16.5822 7.94665 16.3751 7.78089L12.0001 4.28089 7.62505 7.78089C7.41792 7.94665 7.15342 8.02333 6.88974 7.99408 6.62607 7.96482 6.38481 7.83202 6.21905 7.62489 6.05329 7.41775 5.9766 7.15325 6.00586 6.88958 6.03512 6.6259 6.16792 6.38465 6.37505 6.21889L11.3751 2.21889C11.5524 2.07688 11.7728 1.99951 12.0001 1.99951 12.2273 1.99951 12.4477 2.07688 12.6251 2.21889zM12 19.7188L16.375 16.2188C16.5822 16.053 16.8467 15.9764 17.1104 16.0056 17.2409 16.0201 17.3673 16.0602 17.4824 16.1235 17.5975 16.1869 17.699 16.2722 17.781 16.3748 17.9468 16.5819 18.0235 16.8464 17.9942 17.1101 17.965 17.3738 17.8322 17.615 17.625 17.7808L12.625 21.7808C12.4477 21.9228 12.2273 22.0002 12 22.0002 11.7728 22.0002 11.5524 21.9228 11.375 21.7808L6.37505 17.7808C6.27249 17.6987 6.18709 17.5973 6.12375 17.4822 6.0604 17.3671 6.02034 17.2407 6.00586 17.1101 5.99137 16.9796 6.00274 16.8474 6.03932 16.7213 6.0759 16.5951 6.13697 16.4774 6.21905 16.3748 6.30113 16.2722 6.4026 16.1869 6.51768 16.1235 6.63275 16.0602 6.75918 16.0201 6.88974 16.0056 7.0203 15.9911 7.15243 16.0025 7.2786 16.0391 7.40476 16.0757 7.52249 16.1367 7.62505 16.2188L12 19.7188z"></path>
  </symbol>
  <symbol xmlns="http://www.w3.org/2000/svg" aria-hidden="true" viewBox="0 0 24 24" id="sort-desc-line">
    <path d="M12 19.7188L16.375 16.2188C16.5822 16.053 16.8467 15.9764 17.1104 16.0056C17.2409 16.0201 17.3673 16.0602 17.4824 16.1235C17.5975 16.1869 17.699 16.2722 17.781 16.3748C17.9468 16.5819 18.0235 16.8464 17.9942 17.1101C17.965 17.3738 17.8322 17.615 17.625 17.7808L12.625 21.7808C12.4477 21.9228 12.2273 22.0002 12 22.0002C11.7728 22.0002 11.5524 21.9228 11.375 21.7808L6.37505 17.7808C6.27249 17.6987 6.18709 17.5973 6.12375 17.4822C6.0604 17.3671 6.02034 17.2407 6.00586 17.1101C5.99137 16.9796 6.00274 16.8474 6.03932 16.7213C6.0759 16.5951 6.13697 16.4774 6.21905 16.3748C6.30113 16.2722 6.4026 16.1869 6.51768 16.1235C6.63275 16.0602 6.75918 16.0201 6.88974 16.0056C7.0203 15.9911 7.15243 16.0025 7.2786 16.0391C7.40476 16.0757 7.52249 16.1367 7.62505 16.2188L12 19.7188Z"></path>
  </symbol>
  <symbol xmlns="http://www.w3.org/2000/svg" aria-hidden="true" viewBox="0 0 24 24" id="sort-asc-line">
    <path d="M12.6251 2.21889L17.6251 6.21889C17.8322 6.38465 17.965 6.6259 17.9942 6.88958C18.0235 7.15325 17.9468 7.41775 17.7811 7.62489C17.6153 7.83202 17.374 7.96482 17.1104 7.99408C16.8467 8.02333 16.5822 7.94665 16.3751 7.78089L12.0001 4.28089L7.62505 7.78089C7.41792 7.94665 7.15342 8.02333 6.88974 7.99408C6.62607 7.96482 6.38481 7.83202 6.21905 7.62489C6.05329 7.41775 5.9766 7.15325 6.00586 6.88958C6.03512 6.6259 6.16792 6.38465 6.37505 6.21889L11.3751 2.21889C11.5524 2.07688 11.7728 1.99951 12.0001 1.99951C12.2273 1.99951 12.4477 2.07688 12.6251 2.21889Z"></path>
  </symbol>

  <symbol xmlns="http://www.w3.org/2000/svg" viewBox="0 0 24 24" id="buymeacoffee">
    <path d="m20.22 6.42-.14-.67c-.11-.6-.38-1.16-1-1.38-.2-.07-.42-.1-.57-.24-.15-.14-.2-.37-.23-.57l-.19-1.14c-.06-.32-.1-.69-.25-.98-.2-.4-.6-.64-1-.8a5.72 5.72 0 0 0-.62-.19c-1-.26-2.05-.36-3.08-.41a25.83 25.83 0 0 0-3.7.06C8.53.18 7.56.28 6.7.6c-.32.12-.65.26-.89.5-.3.3-.39.77-.17 1.15.15.26.41.45.69.58.36.16.73.28 1.12.36a25 25 0 0 0 7.83.13c.36-.05.58-.5.48-.83-.13-.38-.46-.53-.84-.47-.46.07-.96.1-1.38.15-1.18.08-2.36.08-3.53 0a22.23 22.23 0 0 1-1.16-.1l-.26-.04a12.6 12.6 0 0 1-.72-.13c-.11-.03-.11-.19 0-.21l.84-.15c.13 0 .27-.03.4-.05a25.08 25.08 0 0 1 3.42-.12c.68.02 1.35.07 2.02.15l.23.03c.26.04.53.08.8.14.39.09.89.11 1.06.54.06.14.08.3.12.43l.31 1.49a.24.24 0 0 1-.2.28l-.1.02a36.7 36.7 0 0 1-4.75.3 37.06 37.06 0 0 1-4.7-.31l-.42-.06-.97-.16a1.7 1.7 0 0 0-1.12.16c-.3.16-.53.4-.68.7-.15.32-.2.66-.27 1-.07.34-.17.7-.13 1.06.09.75.61 1.36 1.37 1.5A39.69 39.69 0 0 0 16.43 9a.48.48 0 0 1 .54.53l-.07.7-1.02 9.9c-.04.42-.05.84-.13 1.24-.12.64-.55 1.03-1.18 1.18-.58.13-1.16.2-1.76.2l-1.96-.02c-.7 0-1.56-.06-2.1-.58-.47-.46-.54-1.18-.6-1.8l-.73-7-.32-3.1c-.04-.35-.29-.7-.68-.68-.34.02-.72.3-.68.68l.23 2.19.95 9.1c.14 1.35 1.17 2.08 2.44 2.28.74.12 1.5.14 2.26.16.97.01 1.94.05 2.9-.13 1.4-.25 2.46-1.2 2.6-2.65.35-3.34.7-6.67 1.03-10l.22-2.09a.48.48 0 0 1 .39-.42c.4-.08.78-.21 1.07-.52.46-.49.55-1.12.39-1.77zm-1.48.77c-.15.13-.36.2-.58.23-2.42.36-4.87.54-7.3.46a49.37 49.37 0 0 1-5.21-.5c-.17-.02-.36-.05-.47-.18-.22-.23-.12-.7-.06-1 .05-.25.15-.6.46-.64.49-.06 1.05.15 1.53.22a33.58 33.58 0 0 0 10.55-.14c.4-.07.84-.2 1.08.2.17.29.2.67.17.98a.54.54 0 0 1-.17.37zm-6.16 3.9c-.86.37-1.84.78-3.11.78a5.88 5.88 0 0 1-1.57-.21l.88 9a1.5 1.5 0 0 0 1.5 1.38s1.24.07 1.66.07c.44 0 1.78-.07 1.78-.07.78 0 1.44-.6 1.5-1.38l.94-9.95a4 4 0 0 0-1.32-.24c-.83 0-1.5.29-2.26.62z"/>
  </symbol>
  <symbol xmlns="http://www.w3.org/2000/svg" viewBox="0 0 16 16" id="instagram">
    <path d="M11 0H5a5 5 0 0 0-5 5v6a5 5 0 0 0 5 5h6a5 5 0 0 0 5-5V5a5 5 0 0 0-5-5Zm3.5 11c0 2-1.6 3.5-3.5 3.5H5c-2 0-3.5-1.6-3.5-3.5V5c0-2 1.6-3.5 3.5-3.5h6c2 0 3.5 1.6 3.5 3.5v6Z"/>
    <path d="M8 4a4 4 0 1 0 0 8 4 4 0 0 0 0-8Zm0 6.5a2.5 2.5 0 1 1 0-5 2.5 2.5 0 0 1 0 5Zm4.3-6.3a.5.5 0 1 0 0-1 .5.5 0 0 0 0 1Z"/>
  </symbol>
  <symbol xmlns="http://www.w3.org/2000/svg" viewBox="0 0 1080 1080" id="patreon">
    <path d="M1033 324c0-137-108-250-234-291a746 746 0 0 0-512 27C106 145 49 333 47 519c-2 154 14 558 242 561 169 2 194-216 273-321 56-75 127-96 216-118a320 320 0 0 0 255-317z"/>
  </symbol>
  <symbol xmlns="http://www.w3.org/2000/svg" viewBox="0 0 16 16" id="telegram">
    <path d="M6.3 10.1 6 13.8c.4 0 .6-.1.8-.3l1.7-1.7 3.7 2.7c.7.4 1.2.2 1.3-.6L16 2.5c.2-1-.4-1.3-1-1.1L.6 6.8c-1 .4-1 1-.1 1.2l3.6 1.1L12.6 4c.4-.3.8-.2.5.1l-6.8 6.1Z"/>
  </symbol>
  <symbol xmlns="http://www.w3.org/2000/svg" viewBox="0 0 20 14" id="youtube">
    <path d="M19.6 2.2c-.2-.9-1-1.5-1.8-1.8C16.3 0 10 0 10 0S3.7 0 2.2.4C1.3.6.6 1.4.4 2.2 0 3.8 0 7 0 7s0 3.3.4 4.8c.2.9 1 1.5 1.8 1.8 1.6.4 7.8.4 7.8.4s6.3 0 7.8-.4c.9-.2 1.6-1 1.8-1.8.4-1.5.4-4.8.4-4.8s0-3.2-.4-4.8Z"/>
    <path fill="#18284A" d="M13.2 7 8 4v6l5.2-3Z" />
  </symbol>
</svg>



